<svg id="avatar" width="80" height="80" xmlns="http://www.w3.org/2000/svg">
 <g>
  <ellipse style="fill: var(--main);" ry="40" rx="40" cy="40" cx="40"/>
  <path style="fill: var(--sub);" d="m16.39,43.159997c-0.16,-1.13 -0.88,-2.79 -0.39,-3.31c8.5,-9 17.15,-17.91 25.77,-26.83l1.27,0.8l0,35.59c-9.38,-0.3 -18.38,-2 -26.78,-6.38l0.13,0.13z" class="cls-1"/>
  <path style="fill: var(--sub);" d="m66.38,56.059997c-2.31,5.74 -6.46,8.27 -11.35,9.44a47.7,47.7 0 0 1 -11.41,1.18a131,131 0 0 1 -17.75,-1.08c-5.62,-0.82 -10.24,-3.74 -13.63,-9.54l54.14,0z" class="cls-1"/>
  <path style="fill: var(--sub);" d="m46.64,18.949997c6,8.51 12,16.73 17.7,25.09c0.5,0.73 0,2.67 -0.66,3.57c-4.09,5.43 -10.27,6.52 -16.47,7.33c-0.48,0.06 -1.63,-1.19 -1.63,-1.84c0,-11 0,-22.08 0.12,-33.11c0,-0.22 0.3,-0.39 0.94,-1.04z" class="cls-1"/>
  <path style="fill: var(--sub);" d="m16.25,43.029997c5.36,4.89 12.26,5.45 18.9,6.68c2.07,0.38 4.23,0.33 6.24,0.88a3.16,3.16 0 0 1 1.91,2.34c0,0.73 -1.41,2.11 -2.1,2.06c-7.79,-0.63 -15.54,-1.6 -22.59,-5.33a17.27,17.27 0 0 1 -4.44,-3.29c-0.78,-0.82 -0.9,-2.26 -1.32,-3.42l3.54,0.22l-0.14,-0.14z" class="cls-1"/>
 </g>
</svg>
