<svg id="avatar" width="80" height="80" xmlns="http://www.w3.org/2000/svg">
 <g>
  <ellipse style="fill: var(--main);" ry="40" rx="40" cy="40" cx="40"/>
  <path style="fill: var(--sub);" d="m45.87,51.609997l0,-42.39c6.19,3.94 11.51,7 16.43,10.67c1.1,0.82 1.31,3.64 1,5.39c-1.39,8.65 -5.34,16.2 -10.7,23.06c-0.89,1.14 -1.79,2.27 -3.2,4.06l13.78,0c-10.05,11.86 -25.34,15.15 -38.16,8.44c-4.21,-2.21 -8.18,-4.88 -12.26,-7.34l0.36,-1.18l26.73,0l0.17,-1.13l-8.23,-2.51l12.46,-26.17l0,29.09l1.62,0.01zm-13.39,-4.28l8.5,3.09l0,-19.29l-8.5,16.2z" class="cls-1"/>
  <path style="fill: var(--sub);" d="m58.4,68.839997c-1,0.61 -1.94,1.76 -2.9,1.75c-7.21,-0.1 -14.41,-0.49 -21.61,-0.64c-2.24,0 -4.49,0.51 -6.73,0.47c-1.12,0 -2.22,-0.74 -3.33,-1.14l0.23,-1.21l33.69,0l0.65,0.77z" class="cls-1"/>
 </g>
</svg>
