<svg id="avatar" width="80" height="80" xmlns="http://www.w3.org/2000/svg">
 <g>
  <ellipse ry="40" rx="40" style="fill: var(--main);" cy="40" cx="40"/>
  <path style="fill: var(--sub);" d="m34.95,19.059997c2.11,-0.77 4.2,-2.12 6.34,-2.23c9.64,-0.46 17.51,3.19 22.9,11.31c5.28,8 5.63,16.5 1.79,25.17c-0.38,0.87 -1.92,2 -2.58,1.84c-8.48,-2.38 -16.88,-2 -25.87,0.69c3.16,-13 3.89,-25.24 -2.68,-36.87l0.1,0.09z" class="cls-1"/>
  <path style="fill: var(--sub);" d="m34.84,18.949997c0,11.41 0.15,22.83 0,34.24a3.73,3.73 0 0 1 -2.34,2.76a100.8,100.8 0 0 1 -10.33,0.13c1.32,-4.24 2.38,-7.74 3.48,-11.22c2.44,-7.68 4.86,-15.36 7.39,-23a12.22,12.22 0 0 1 1.9,-2.79l-0.1,-0.12z" class="cls-1"/>
  <path style="fill: var(--sub);" d="m17.95,63.539997c1.77,-3.53 3.82,-5 7.26,-5.15c11,-0.55 22,-1.45 33,-2.19a8.91,8.91 0 0 1 3.68,0.45c-4.79,2.78 -8.5,7.36 -14.78,7.19c-8.18,-0.22 -16.36,-0.07 -24.55,-0.1c-1.31,0 -2.66,-0.11 -4.61,-0.2z" class="cls-1"/>
  <path style="fill: var(--sub);" d="m19.84,67.359997c5.65,0 10.63,-1 15.7,-0.29c4.81,0.7 9.87,-0.29 16.22,-0.6c-1.68,1.53 -2.62,3.11 -3.66,3.18c-2.87,0.2 -5.78,-0.3 -8.67,-0.42c-2.71,-0.11 -5.43,-0.16 -8.15,-0.09c-2.88,0.07 -5.76,0.51 -8.61,0.36c-0.98,-0.05 -1.89,-1.39 -2.83,-2.14z" class="cls-1"/>
  <path style="fill: var(--sub);" d="m23.83,15.699997c3.24,-0.35 6.47,-0.78 9.72,-1c0.42,0 0.92,1.13 1.38,1.73c-0.62,0.45 -1.26,1.31 -1.86,1.28c-3.06,-0.17 -6.11,-0.58 -9.16,-0.9l-0.08,-1.11z" class="cls-1"/>
 </g>
</svg>
