<svg id="avatar" width="80" height="80" xmlns="http://www.w3.org/2000/svg">
 <g>
  <ellipse style="fill: var(--main);" ry="40" rx="40" cy="40" cx="40"/>
  <path style="fill: var(--sub);" d="m29.600003,71a60.76,60.76 0 0 0 2.74,-6.37a77.76,77.76 0 0 0 2.55,-10.4c0.48,-3.13 -1.08,-5.55 -4,-6.85c-3.1,-1.37 -5.85,-0.81 -7.93,2c-1.82,2.43 -3.53,4.95 -5.8,8.16l0,-27.57c1.9,2.83 3.19,4.86 4.58,6.8c2.88,4 5.38,5 9.14,3.44c3.18,-1.28 4.83,-4.27 3.94,-8.69a89.52,89.52 0 0 0 -3.48,-10.94a9.77,9.77 0 0 1 -0.94,-4.3c2.33,1 4.7,1.89 7,3a49.33,49.33 0 0 1 22.43,21a6.52,6.52 0 0 1 0,6.93c-6.31,11.59 -16.07,19 -28.23,23.52a11.3,11.3 0 0 1 -2,0.27z"/>
  <path style="fill: var(--sub);" d="m66.654999,33.359997c-2,1.3 -3.28,2.69 -4.22,2.52a3.84,3.84 0 0 1 -2.52,-2.81c0,-0.94 1.71,-2.45 2.77,-2.54s2.06,1.42 3.97,2.83z"/>
  <path style="fill: var(--sub);" d="m62.73,27.669997c-1.11,-1.51 -2.29,-2.42 -2.21,-3.2s1.32,-1.64 2.06,-2.44c0.8,0.77 2.09,1.45 2.24,2.33s-1.04,1.74 -2.09,3.31z"/>
  <path style="fill: var(--sub);" transform="rotate(-44.71928787231445 61.90998840332033,17.085071563720707) " d="m63.695388,17.185525c-1.059583,0.871575 -1.737716,1.803489 -2.23572,1.689514a2.034399,2.574497 0 0 1 -1.335074,-1.883942c0,-0.630216 0.905943,-1.642583 1.467522,-1.702923s1.09137,0.952028 2.103272,1.897351z"/>
 </g>
</svg>
