<svg id="avatar" width="80" height="80" xmlns="http://www.w3.org/2000/svg">
 <g>
  <ellipse style="fill: var(--main);" ry="40" rx="40" id="svg_77" cy="39.999998" cx="40.000001"/>
  <path style="fill: var(--sub);" d="m36.102274,16.834998c-2,-4.06 -7.75,2.08 -9,-4l10,-4.58c1.24,6.21 1.24,6.21 7.46,8.36c14.87,5.13 23.89,17.32 24.19,33.29c-10.33,-5.28 -19.6,1.56 -29.51,1.33l0.14,1.7l27.88,-2.64a14.21,14.21 0 0 1 -4.67,9.76c-0.67,0.65 -2.28,1.2 -2.91,0.84c-2.55,-1.44 -4.64,-0.26 -7.07,0.29s-5.07,-0.21 -7.62,-0.33c-1.89,-0.09 -3.79,-0.06 -5.69,-0.08c-0.12,0 -0.23,0.1 -0.35,0.12c-7,0.75 -14.18,-0.52 -21.22,1c-1.1,0.24 -2.54,-1.12 -3.65,-2.36l2.15,-0.17a16.81,16.81 0 0 0 0,-1.78c-0.37,-3.5 1,-4.87 4.66,-4.64a65.27,65.27 0 0 0 14.76,-0.74l-5.36,0l3.94,-3.29c-6.8,0.52 -13.23,3.15 -20.2,-0.58c6.36,-3.67 10,-8.91 13.16,-14.55s5.91,-11.3 8.91,-16.95zm2.31,28.29c7.37,-6.14 7,-18.94 0,-26.16l0,26.16z" class="cls-1"/>
  <path style="fill: var(--sub);" d="m21.370001,64.528633l11.47,0a8.08,8.08 0 0 1 -11.47,0z" class="cls-1"/>
  <path style="fill: var(--sub);" d="m34.873638,64.508634l11.19,0a7.67,7.67 0 0 1 -11.19,0z" class="cls-1"/>
  <path style="fill: var(--sub);" d="m47.469092,64.508633l11.16,0c-2.85,3.981746 -7.45,4.043383 -11.16,0z" class="cls-1"/>
 </g>
</svg>
