<svg id="avatar" width="80" height="80" xmlns="http://www.w3.org/2000/svg">
 <g>
  <ellipse style="fill: var(--main);" ry="40" rx="40" cy="40" cx="40"/>
  <path style="fill: var(--sub);" d="m13.82,58.889997l23.43,0l0,-8.13l-12.83,0c1.06,-5.33 2.52,-10.31 2.91,-15.38c0.33,-4.37 -0.28,-8.77 0.93,-13.15c0.32,-1.16 -0.84,-2.73 -1.52,-4.7a59,59 0 0 0 7.88,-1.66a6.07,6.07 0 0 0 2.85,-3c0.61,-1.24 -0.49,-3.73 2.16,-3.25c0.75,0.14 1.19,2.11 1.72,3.26a8.52,8.52 0 0 1 0.3,1.56l9.13,-1.36c-0.92,4.24 -1.73,8.18 1.93,11.21c0.35,0.29 0,1.62 -0.24,2.37c-1.24,3.39 -1.15,6.52 1.26,9.45a3.33,3.33 0 0 1 0.76,2.62c-1.39,4 -0.92,7.5 2.24,10.65l-0.43,0.85c-3.26,0 -6.53,0 -9.79,0c-5.25,0.06 -5.25,0.08 -5.17,5.35c0,0.85 0.1,1.71 0.17,2.85c5,0 9.93,0.39 14.76,-0.19c1.95,-0.24 4.31,-2.26 5.3,-4.11c1.82,-3.37 4.43,-1.81 6.79,-1.81a28.77,28.77 0 0 1 0.33,3.27c-5,0.27 -5.28,4.8 -6.65,7.88c-1.64,3.7 -3.85,4.71 -7.67,4.6c-8.93,-0.26 -17.89,-0.33 -26.81,0c-4,0.16 -6.5,-1.81 -9.13,-4.07l-4.92,-4.22l0.31,-0.89z" class="cls-1"/>
 </g>
</svg>
