<svg id="avatar" width="80" height="80" xmlns="http://www.w3.org/2000/svg">
 <g>
  <ellipse ry="40" rx="40" style="fill: var(--main);" cy="40" cx="40" fill-opacity="null" stroke-opacity="null" stroke-width="null" stroke="null" fill="null"/>
  <path style="fill: var(--sub);" d="m17.25,50.649997l-6.34,6l0,-8.16l-4.78,-3.94l4.54,-3l0,-8.6l6.56,5.91c2.64,-1.54 5.38,-2.77 7.64,-4.61a5.86,5.86 0 0 0 1.53,-4.33c-0.17,-3.32 0.79,-4.87 4.35,-4.44a61.2,61.2 0 0 0 6.87,0a72.26,72.26 0 0 1 0.09,-7.59c0.1,-0.9 1.12,-2.31 1.87,-2.41a28.53,28.53 0 0 1 7,0a2.75,2.75 0 0 1 1.79,2.05c0,0.7 -1.16,1.69 -2,1.93a22.8,22.8 0 0 1 -4.49,0.42l0,5.59a60.11,60.11 0 0 0 6.23,0c3.39,-0.36 5.28,0.56 4.66,4.39a8.69,8.69 0 0 0 0.17,2.14c7.9,3.27 7.9,3.27 7.89,12.15c0,1.24 0,2.48 0,3.72c0,7.4 0,7.59 -7.06,9.06c-10.4,2.14 -20.72,2 -30.57,-2.59a60.36,60.36 0 0 1 -5.95,-3.69zm22.76,-2l1.67,0c0.88,-1.34 2.51,-2.73 2.42,-4s-2.05,-3 -3.17,-3s-3.2,1.78 -3.31,2.93s1.55,2.73 2.42,4.09l-0.03,-0.02zm-6.91,-3.81c-2.09,-1.58 -3.46,-3.38 -4.48,-3.2c-1.38,0.25 -2.5,2 -3.73,3.12c1.21,1.14 2.28,2.92 3.66,3.19c1.06,0.23 2.47,-1.55 4.58,-3.09l-0.03,-0.02zm24.82,-0.18c-2.15,-1.5 -3.57,-3.23 -4.57,-3c-1.34,0.29 -2.37,2.08 -3.53,3.23c1.22,1.1 2.32,2.85 3.68,3.07c1.05,0.18 2.38,-1.65 4.46,-3.28l-0.04,-0.02z" class="cls-1"/>
  <path style="fill: var(--sub);" d="m18.38,62.949997l42.61,0a3.5,3.5 0 0 1 -3.84,3.22c-5.83,0 -11.66,0.06 -17.48,-0.11c-3,-0.08 -5.89,-0.81 -8.84,-0.85a60.23,60.23 0 0 0 -8.64,0.68c-2.12,0.29 -2.94,-0.14 -3.81,-2.94z" class="cls-1"/>
  <path style="fill: var(--sub);" d="m62.39,53.339997l0,-16.52a8.61,8.61 0 0 1 6.92,7c0.5,3.78 -1.84,7.13 -6.92,9.52z" class="cls-1"/>
 </g>
</svg>
