<svg id="avatar" width="80" height="80" xmlns="http://www.w3.org/2000/svg">
 <g>
  <ellipse ry="40" rx="40" style="fill: var(--main);" cy="40" cx="40"/>
  <path style="fill: var(--sub);" d="m42.51,51.009997a19,19 0 0 0 3.18,0.57c5.34,0.06 10.68,0.05 16,0c2.09,0 3.64,0.9 3.22,3c-0.24,1.22 -1.76,3.15 -2.67,3.13c-13.13,-0.22 -26.34,0 -39.36,-1.39c-9.78,-1.06 -12.51,-6.4 -10.74,-16.19c0.65,-3.59 0.65,-3.59 -4.64,-5.38c0.12,-2.83 1.59,-4.73 4.34,-5.13c3.3,-0.49 4.89,1.72 5.68,4.7l0.71,-1c2.07,1.42 4.74,2.45 6,4.39c0.81,1.26 -0.44,3.86 -0.89,6.62a18.21,18.21 0 0 0 -2.08,-1.55c-1.41,-0.62 -2.85,-1.19 -4.27,-1.77c-0.1,1.7 -0.82,3.69 -0.18,5c1.5,3.13 4.82,3.13 7.49,2.26c1.3,-0.42 2.57,-2.83 2.75,-4.46c1.11,-10.33 9.44,-18.38 19.21,-18.19a19.55,19.55 0 0 1 19,18.42c0.27,3.66 -0.89,5 -4.61,5c-4.72,0.05 -9.44,0 -14.16,0c-1.3,0 -2.59,0.26 -3.88,0.4l-0.1,1.57zm-2.32,-16.93c-1.17,1.56 -2.41,2.5 -2.33,3.3s1.35,1.89 2.3,2.16c0.48,0.14 2,-1.23 2,-1.94c-0.1,0.65 -1.09,-0.29 -2.07,-1.95l0.1,-1.57z" class="cls-1"/>
  <path style="fill: var(--sub);" d="m16.16,62.369997c4.84,-0.43 8.73,-1 12.62,-1.05c2.89,0 5.79,1 8.69,1s5.83,-0.45 8.75,-0.66c0.65,0 1.32,0.15 2,0.16c3.68,0 7.36,0 12.13,0c-1.49,1.32 -2.52,3 -3.68,3.13c-2.87,0.21 -5.8,-0.34 -8.71,-0.54c-2.18,-0.15 -4.37,-0.38 -6.55,-0.32c-4.79,0.11 -9.57,0.41 -14.35,0.57a52.62,52.62 0 0 1 -7.49,0c-1.03,-0.1 -1.94,-1.25 -3.41,-2.29z" class="cls-1"/>
  <path style="fill: var(--sub);" d="m42.83,22.949997l-11.83,-10.5c2.85,0.2 5.33,-0.3 7,0.64c3.69,2 4.25,5.97 4.83,9.86z" class="cls-1"/>
  <path style="fill: var(--sub);" d="m50.12,17.869997l-5.65,4.46l-1,-0.22c0.67,-1.79 0.93,-4 2.16,-5.23c0.77,-0.76 3,0 4.61,0.06l-0.12,0.93z" class="cls-1"/>
 </g>
</svg>
