<svg id="avatar" width="80" height="80" xmlns="http://www.w3.org/2000/svg">
  <g>
   <ellipse style="fill: var(--main);" ry="40" rx="40" cy="40" cx="40"/>
   <path style="fill: var(--sub);" d="m37.7,33.949997c0.9,-3.67 0.85,-6.09 -2.66,-8.21c-4.69,-2.83 -5.09,-9.4 -1.51,-13.37a9.3,9.3 0 0 1 13.85,-0.05c3.59,4 3.21,10.51 -1.47,13.36c-3.46,2.11 -3.47,4.56 -2.81,8.15l9.37,0l0,4.39c-2.36,0 -4.56,0.07 -6.76,0c-1.94,-0.08 -3,0.42 -3,2.67c0.1,5 0,9.93 0,14.9c0,1 0,2 0,3.46a35.16,35.16 0 0 0 16.34,-11.78l-8.14,-2.8l17.55,-6.92c-2.19,17.83 -16.88,24.58 -28,34c-5.57,-4.33 -11.64,-8.6 -17.17,-13.49c-5.86,-5.18 -9.61,-11.81 -11.19,-20.59l16.61,6.48l0.06,0.92l-6.89,2.22a34,34 0 0 0 16.23,12c0,-6.71 0.07,-12.89 -0.1,-19.07c0,-0.66 -1.29,-1.71 -2.1,-1.84c-1.82,-0.29 -3.74,0.08 -5.56,-0.2c-0.77,-0.12 -2.06,-1.39 -1.94,-1.83c0.24,-0.9 1.19,-2.15 2,-2.25a58.13,58.13 0 0 1 7.29,-0.15zm2.76,-10.79c2.93,-0.24 4.64,-1.74 4.83,-4.65a4.86,4.86 0 0 0 -5,-4.87c-2.92,0.21 -4.46,2 -4.5,4.89c-0.02,3.06 1.91,4.36 4.67,4.66l0,-0.03z"/>
  </g>
</svg>
