<svg id="avatar" width="80" height="80" xmlns="http://www.w3.org/2000/svg">
 <g>
  <ellipse style="fill: var(--main);" ry="40" rx="40" cy="40" cx="40"/>
  <path style="fill: var(--sub);" d="m50.25,67.289997l-20.11,0c1.34,-8.45 2.61,-16.5 3.89,-24.55a56.62,56.62 0 0 0 1.11,-7c0.13,-4 2.48,-4.43 5.72,-4.51s4.15,1.43 4.56,4.39c1.45,10.45 3.17,20.83 4.83,31.67z" class="cls-1"/>
  <path style="fill: var(--sub);" d="m41.9,20.949997c0,2 0.11,4 -0.07,5.95c-0.06,0.64 -0.88,1.21 -1.35,1.81c-0.48,-0.47 -1.37,-0.94 -1.38,-1.42q-0.14,-6.5 0.05,-13c0,-0.43 0.95,-0.83 1.45,-1.24c0.41,0.53 1.15,1 1.18,1.6c0.14,2.1 0.06,4.21 0.06,6.32l0.06,-0.02z" class="cls-1"/>
  <path style="fill: var(--sub);" d="m17.04,32.709997l16.56,0c-2.35,2.6 -13.35,2.71 -16.56,0z" class="cls-1"/>
  <path style="fill: var(--sub);" d="m46.65,32.859997l16.6,0c-3,2.39 -13.1,2.44 -16.6,0z" class="cls-1"/>
  <path style="fill: var(--sub);" d="m24.25,18.119997l12.42,11.7c-3.86,0.29 -12.31,-7.64 -12.42,-11.7z" class="cls-1"/>
  <path style="fill: var(--sub);" d="m56.25,17.949997c-0.2,4.16 -7.27,11.7 -11,11.48l11,-11.48z" class="cls-1"/>
 </g>
</svg>
