<svg id="avatar" width="80" height="80" xmlns="http://www.w3.org/2000/svg">
 <g>
  <ellipse style="fill: var(--main);" ry="40" rx="40" cy="40" cx="40"/>
  <path style="fill: var(--sub);" d="m19.85,46.049997l10.15,2.2l-5.9,-11.73l13.23,0l0,-28.05l1.09,-0.32l15.9,20.8l-12.07,6.61l0.12,0.69l16,0l-2.46,5.48c1.84,2.24 7.25,1 5.76,6.28c-0.46,0 -1,0.17 -1.35,0c-5.86,-3.2 -11.64,-2.42 -17.49,0.1c-6.7,2.89 -13.53,4.83 -20.91,2.39c-2.55,-0.88 -2.97,-2.24 -2.07,-4.45z" class="cls-1"/>
  <path style="fill: var(--sub);" d="m61.44,63.829997c-7.3,-4.27 -14,-2.58 -20.91,0.44c-5.78,2.54 -11.89,3.47 -18.15,1.63c-2.35,-0.69 -3.71,-1.9 -2.46,-5c8.48,4.07 16.3,1.16 24.2,-2.07a19.7,19.7 0 0 1 15.25,-0.1c2.66,1.08 2.66,1.09 2.07,5.1z" class="cls-1"/>
  <path style="fill: var(--sub);" d="m19.93,53.179997c7.74,3.75 14.82,2 21.82,-1.1c5.65,-2.52 11.44,-3.15 17.38,-1.11c2.29,0.79 3.62,2.13 2.23,5.1c-7.1,-4.3 -13.91,-2.41 -20.91,0.61c-5.76,2.49 -11.9,3.53 -18.17,1.56c-2.39,-0.74 -3.54,-2.06 -2.35,-5.06z" class="cls-1"/>
  <path style="fill: var(--sub);" d="m178.16,342.369997c4.84,-0.43 8.73,-1 12.62,-1.05c2.89,0 5.79,1 8.69,1s5.83,-0.45 8.75,-0.66c0.65,0 1.32,0.15 2,0.16c3.68,0 7.36,0 12.13,0c-1.49,1.32 -2.52,3 -3.68,3.13c-2.87,0.21 -5.8,-0.34 -8.71,-0.54c-2.18,-0.15 -4.37,-0.38 -6.55,-0.32c-4.79,0.11 -9.57,0.41 -14.35,0.57a52.62,52.62 0 0 1 -7.49,0c-1.03,-0.1 -1.94,-1.25 -3.41,-2.29z" class="cls-1"/>
 </g>
</svg>
