<svg id="avatar" width="80" height="80" xmlns="http://www.w3.org/2000/svg">
 <g>
  <ellipse style="fill: var(--main);" ry="40" rx="40" cy="40" cx="40"/>
  <path style="fill: var(--sub);" d="m69.55,41.139997c0,6.48 -4.28,11.81 -10.84,14a8.69,8.69 0 0 0 -4.23,3.39c-4.28,6.83 -13,11 -20.42,9.44c-5.32,-1.09 -8.37,-4.31 -10,-9.41a7.13,7.13 0 0 0 -3.15,-3.86c-7.45,-3.85 -11.85,-14.57 -8.92,-22.41a12.64,12.64 0 0 1 8.37,-7.9a6.83,6.83 0 0 0 4.52,-3.8c4.8,-9.52 20.89,-12.59 27,-4.55a62.52,62.52 0 0 0 12.18,12.46c3.95,2.99 5.44,7.68 5.49,12.64zm-14.51,-15.19l-0.69,-1.4a12.38,12.38 0 0 0 -2.9,1.75c-2.67,2.84 -5.1,5.69 -9.62,3a5,5 0 0 0 -4.31,0c-4.25,2.57 -6.76,0.33 -9.19,-2.72a4.13,4.13 0 0 0 -1.62,-1.48a6.33,6.33 0 0 0 -2.31,0.16l-0.2,1c1.12,1 2.25,1.93 3.36,2.91c2.31,2 4,3.93 2.13,7.53c-0.9,1.78 -0.43,4.76 0.4,6.8c1,2.49 0.36,3.86 -1.34,5.47c-1.42,1.34 -3.41,2.81 -3.69,4.47c-1,5.8 4.59,12.23 10.57,12.61c7.27,0.47 12.93,-2.44 17.18,-8.73c-12.09,5.45 -21.3,4.79 -27.48,-2.69a39.45,39.45 0 0 0 5.11,-4.08c1.66,-1.81 3,-2.11 5.43,-1.28c2.2,0.76 5.11,1.08 7.16,0.25c3.08,-1.24 4.84,-0.46 6.63,1.82a12,12 0 0 0 2.59,2.61a6.08,6.08 0 0 0 2.41,0.39l1.05,-1.65c-1.69,-1.24 -3.39,-2.46 -5.06,-3.73c-1.87,-1.43 -2.53,-2.89 -1.22,-5.33c0.86,-1.6 1.47,-4.31 0.69,-5.66c-2.91,-5 0.15,-7.67 3.39,-10.46a18.53,18.53 0 0 0 1.53,-1.56zm3.48,1c0.95,4.35 2.73,8.76 2.63,13.12s-2.07,8.65 -3.15,12.74c5.08,-0.94 8.69,-4.77 9.52,-10.58s-3.32,-12.57 -9,-15.22l0,-0.06zm-36.08,25.68c-5.75,-8.93 -5.5,-17.75 0.26,-26.66c-6.33,1.63 -9.39,5.38 -9.67,11.44c-0.28,6.39 3.76,13.08 9.41,15.28l0,-0.06zm30.81,-30.28c-1.52,-5.52 -5.13,-8.24 -10.94,-8.57c-7.25,-0.41 -13.24,2.76 -15.42,8.34c8.79,-5.62 17.51,-5.42 26.36,0.29l0,-0.06z"/>
 </g>
</svg>
