<svg id="avatar" width="80" height="80" xmlns="http://www.w3.org/2000/svg">
 <g>
  <ellipse style="fill: var(--main);" ry="40" rx="40" cy="40" cx="40"/>
  <path style="fill: var(--sub);" d="m42.85,43.889997c0.08,-0.58 0.12,-1.18 0.26,-1.75c1.55,-6.48 1,-7.18 -5.83,-7.48c-7.82,-0.34 -13.94,4.11 -14.94,11a10.6,10.6 0 0 0 0.2,4c1.38,5.46 3.4,6.36 8.42,4.05c2.74,-1.26 5.47,-3.24 8.55,-0.72c-2.92,7.52 -3.84,8.22 -10.38,7.93c-0.22,1.85 0.22,4.36 -0.81,5.39c-1.71,1.7 -4.36,2.44 -6.73,3.63c-2.08,-3.44 -0.79,-6 0.83,-8.38c1.51,-2.2 1.56,-3.61 -0.66,-5.6c-11.2,-10 -9.19,-26.52 4,-33.67c2.91,-1.58 6.11,-2.63 9.34,-4l0,-8.43c2.27,1.87 4.25,2.91 5.35,4.54a6.1,6.1 0 0 0 5.67,3.13c9,0.11 16.31,2.89 19.11,12.66c0.4,1.39 2.46,2.25 3.59,3.5c0.69,0.77 1.6,1.93 1.43,2.7a3.18,3.18 0 0 1 -2.51,1.61c-4.44,0.09 -8.9,0 -13.34,-0.21a4.33,4.33 0 0 0 -4.27,1.91c-1.66,2.08 -4.2,3.46 -6.36,5.15l-0.92,-0.96z"/>
 </g>
</svg>
