<svg id="avatar" width="80" height="80" xmlns="http://www.w3.org/2000/svg">
 <g>
  <ellipse style="fill: var(--main);" ry="40" rx="40" cy="40" cx="40"/>
  <path style="fill: var(--sub);" d="m42.04,312.709997l16.56,0c-2.35,2.6 -13.35,2.71 -16.56,0z" class="cls-1"/>
  <path style="fill: var(--sub);" d="m71.65,312.859997l16.6,0c-3,2.39 -13.1,2.44 -16.6,0z" class="cls-1"/>
  <path style="fill: var(--sub);" d="m65.92,58.949997c-9.57,15.16 -39.89,15.16 -49.67,0l49.67,0z" class="cls-1"/>
  <path style="fill: var(--sub);" d="m49.48,57.069997l-29.36,-9c1.18,-2.46 2.51,-5.6 4.23,-8.51c0.41,-0.71 2.24,-1.18 3.15,-0.9c6.14,1.86 12.23,3.91 18.31,6c2.79,0.95 4.09,2.85 3.73,6a54.3,54.3 0 0 0 -0.06,6.41z" class="cls-1"/>
  <path style="fill: var(--sub);" d="m49.25,8.319997l0,27.36l-18.62,-6.73l17.5,-21.23l1.12,0.6z" class="cls-1"/>
  <path style="fill: var(--sub);" d="m49.15,42.809997l-21.74,-7.3c0.94,-4.68 2.25,-5.61 6.91,-4.15c3.78,1.18 7.43,2.79 11.21,4c4.03,1.23 4.58,3.92 3.62,7.45z" class="cls-1"/>
 </g>
</svg>
