<svg width="215" height="215" xmlns="http://www.w3.org/2000/svg">
 <style type="text/css">.st0{fill:#FBFDFF;}
	.st1{fill:#2CBCB5;}
	.st2{fill:#EE5B5E;}
	.st3{fill:#D65155;}
	.st4{fill-rule:evenodd;clip-rule:evenodd;fill:#FFFFFF;}
	.st5{fill:#FFFFFF;}
	.st6{fill:#92278F;}
	.st7{fill:#FDB913;}
	.st8{fill:#B3D138;}</style>

 <g>
  <title>background</title>
  <rect fill="none" id="canvas_background" height="217" width="217" y="-1" x="-1"/>
 </g>
 <g>
  <title>Layer 1</title>
  <g stroke="null" id="svg_31">
   <circle stroke="null" id="svg_32" r="107.599998" cy="107.599998" cx="107.599992" class="st2"/>
   <path stroke="null" id="svg_33" d="m215.19999,107.6c0,-3 -0.1,-6 -0.4,-8.9l-0.5,-0.5l0,0l-1.7,-1.7l0,0l-1.7,-1.7l0,0l-1.7,-1.7l0,0l-1.7,-1.7l0,0l-1.7,-1.7l0,0l-1.7,-1.7l0,0l-1.7,-1.7l0,0l-1.7,-1.7l0,0l-1.7,-1.7l0,0l-1.7,-1.7l0,0l-1.7,-1.7l0,0l-7.6,-7.6l-27.3,26.6c-23.3,-21.3 -46.7,-27.3 -66.4,-27.3c-31.3,0 -57.6,13.1 -76.4,35.8c2.3,2.7 4.7,5.3 7.1,7.7c0.6,0.6 1.1,1.1 1.7,1.7c0.6,0.6 1.1,1.1 1.7,1.7c0.6,0.6 1.1,1.1 1.7,1.7c0.6,0.6 1.1,1.1 1.7,1.7c0.6,0.6 1.1,1.1 1.7,1.7c0.6,0.6 1.1,1.1 1.7,1.7c0.6,0.6 1.1,1.1 1.7,1.7c0.6,0.6 1.1,1.1 1.7,1.7c0.6,0.6 1.1,1.1 1.7,1.7c0.6,0.6 1.1,1.1 1.7,1.7c0.6,0.6 1.1,1.1 1.7,1.7c0.6,0.6 1.1,1.1 1.7,1.7c0.6,0.6 1.1,1.1 1.7,1.7c0.6,0.6 1.1,1.1 1.7,1.7c0.6,0.6 1.1,1.1 1.7,1.7c0.6,0.6 1.1,1.1 1.7,1.7c0.6,0.6 1.1,1.1 1.7,1.7c0.6,0.6 1.1,1.1 1.7,1.7c0.6,0.6 1.1,1.1 1.7,1.7c0.6,0.6 1.1,1.1 1.7,1.7c0.6,0.6 1.1,1.1 1.7,1.7c0.6,0.6 1.1,1.1 1.7,1.7c0.6,0.6 1.1,1.1 1.7,1.7c0.6,0.6 1.1,1.1 1.7,1.7c0.6,0.6 1.1,1.1 1.7,1.7c0.6,0.6 1.1,1.1 1.7,1.7c0.6,0.6 1.1,1.1 1.7,1.7c0.6,0.6 1.1,1.1 1.7,1.7c0.6,0.6 1.1,1.1 1.7,1.7c0.6,0.6 1.1,1.1 1.7,1.7c0.6,0.6 1.1,1.1 1.7,1.7c0.6,0.6 1.1,1.1 1.7,1.7c0.6,0.6 1.1,1.1 1.7,1.7c0.6,0.6 1.1,1.1 1.7,1.7c0.6,0.6 1.1,1.1 1.7,1.7c0.6,0.6 1.1,1.1 1.7,1.7c0.6,0.6 1.1,1.1 1.7,1.7c0.6,0.6 1.1,1.1 1.7,1.7c0.6,0.6 1.1,1.1 1.7,1.7c0.6,0.6 1.1,1.1 1.7,1.7c0.6,0.6 1.1,1.1 1.7,1.7c0.6,0.6 1.1,1.1 1.7,1.7c0.6,0.6 1.1,1.1 1.7,1.7c0.6,0.6 1.1,1.1 1.7,1.7c0.6,0.6 1.1,1.1 1.7,1.7c0.6,0.6 1.1,1.1 1.7,1.7c0.6,0.6 1.1,1.1 1.7,1.7c0.6,0.6 1.1,1.1 1.7,1.7c0.6,0.6 1.1,1.1 1.7,1.7c0.6,0.6 1.1,1.1 1.7,1.7c0.6,0.6 1.1,1.1 1.7,1.7c0.6,0.6 1.1,1.1 1.7,1.7c0.6,0.6 1.1,1.1 1.7,1.7c0.6,0.6 1.1,1.1 1.7,1.7c0.6,0.6 1.1,1.1 1.7,1.7c0.6,0.6 1.1,1.1 1.7,1.7c0.6,0.6 1.1,1.1 1.7,1.7c0.6,0.6 1.1,1.1 1.7,1.7c0.3,0.3 0.5,0.5 0.8,0.8c51.4,-8.2 90.8,-52.8 90.8,-106.5z" class="st3"/>
   <g stroke="null" id="svg_34">
    <g stroke="null" id="svg_35">
     <path stroke="null" id="svg_36" d="m93.699993,131.799999c-36.5,0 -58.3,-26.3 -58.3,-26.3s22.8,-23.3 57.8,-23.3c37.6,0 58.4,24.1 58.4,24.1s-20.3,25.5 -57.9,25.5zm93.9,-60.4l-27.3,26.6c-23.3,-21.3 -46.7,-27.3 -66.4,-27.3c-31.3,0 -57.6,13.1 -76.4,35.8c21.1,25.6 52.5,37.1 75,37.1c43,0 67.9,-27.7 67.9,-27.7l27.7,25.9l8.6,-8.6l-27.7,-26.7l26.2,-27.3l-7.6,-7.8z" class="st4"/>
    </g>
    <polyline stroke-linecap="round" id="svg_148" points="5.500000476837158,42.59999778866768 6.500000476837158,43.59999778866768 7.500000476837158,44.59999778866768 9.500000953674316,45.59999778866768 9.500000953674316,46.59999778866768 10.500000953674316,48.59999778866768 10.500000953674316,48.59999778866768 10.500000953674316,49.59999778866768 11.500000953674316,50.59999778866768 12.500000953674316,50.59999778866768 14.500000953674316,52.59999778866768 18.5,55.59999778866768 25.5,59.59999778866768 34.5,65.59999778866768 45.5,72.59999778866768 54.5,76.59999778866768 70.5,81.59999778866768 83.5,85.59999778866768 100.5,88.59999778866768 118.5,90.59999778866768 131.5,94.59999778866768 144.5,96.59999778866768 151.5,97.59999778866768 157.5,98.59999778866768 162.5,98.59999778866768 163.5,98.59999778866768 164.5,98.59999778866768 164.5,98.59999778866768 164.5,97.59999778866768 164.5,97.59999778866768 163.5,96.59999778866768 163.5,96.59999778866768 162.5,95.59999778866768 " opacity="0.5" fill-opacity="null" stroke-opacity="null" stroke-width="null" stroke="null" fill="none"/>
    <path id="svg_158" d="m80.50004,73.75005c39.99995,-14.99998 31.49964,-56.50022 31.4998,-56.75008c0.00016,-0.24985 26.50013,9.75014 27.00013,9.25014l-28.99997,53.49992" fill-opacity="null" stroke-opacity="null" stroke-width="null" stroke="null" fill="none"/>
   </g>
  </g>
  <path id="svg_159" d="m89.50004,72.25005c30.99996,-16.49998 26.24996,-44.99994 26.49996,-45.49994c0,-0.5 11.49998,4.99999 9.24983,3.99985c-4.49985,39.00009 -36.74979,47.00008 -21.24997,47.24993c15.75013,1.00015 -16.49983,-1.99984 -16.99998,-2.99999" stroke-width="null" stroke="#ffffff" fill="#ffffff"/>
  <rect stroke="null" id="svg_162" height="11.249984" width="21.499966" y="88.375026" x="172.49991" fill-opacity="null" stroke-opacity="null" stroke-width="null" fill="#ffffff"/>
  <rect stroke="null" id="svg_164" height="11.249984" width="21.499966" y="112.87499" x="171.749911" fill-opacity="null" stroke-opacity="null" stroke-width="null" fill="#ffffff"/>
  <ellipse ry="6.999991" rx="6.999991" id="svg_157" cy="99.750011" cx="75.000051" stroke-opacity="null" stroke-width="null" stroke="null" fill="#ffffff"/>
  <path id="svg_167" d="m86.750025,135.374956c13.99998,19.49998 23.74997,23.99997 37.2498,30.62481c36.7501,-9.12483 0.00015,6.37514 -23.24997,-29.99996" fill-opacity="null" stroke-opacity="null" stroke-width="null" stroke="null" fill="#ffffff"/>
 </g>
</svg>