<?xml version="1.0" encoding="iso-8859-1"?>
<!-- Generator: Adobe Illustrator 16.0.0, SVG Export Plug-In . SVG Version: 6.00 Build 0)  -->
<!DOCTYPE svg PUBLIC "-//W3C//DTD SVG 1.1//EN" "http://www.w3.org/Graphics/SVG/1.1/DTD/svg11.dtd">
<svg version="1.1" id="Capa_1" xmlns="http://www.w3.org/2000/svg" xmlns:xlink="http://www.w3.org/1999/xlink" x="0px" y="0px"
	 width="80px" height="80px" viewBox="0 0 500 500"
	 xml:space="preserve">
<g>
	<g>
		<path d="M499.48,238.85c0.918-10.665-1.631-22.959-14.101-24.325c-15.389-1.687-24.575,11.905-27.572,25.083
			c-2.802,12.312-2.242,25.396-0.772,37.842c1.121,9.498,2.695,19.382,6.09,28.4c-1.186-0.121-2.369-0.27-3.545-0.479
			c-0.24-0.043-0.468-0.05-0.695-0.056c-0.417-4.284-1.549-8.523-3.562-12.602c-6.032-12.21-18.654-20.115-30.859-25.763
			c-0.987-19.618,5.849-38.428,13.231-56.311c7.676-18.59,16.778-36.753,21.68-56.351c0.75-3-1.93-5.656-4.921-4.92
			c-24.91,6.127-47.346,19.341-67.438,34.979c-20.455,15.922-38.541,35.227-53.131,56.659c-6.999-1.767-14.002-3.519-21.03-5.186
			c-7.412-1.758-14.858-3.296-22.318-4.76c1.714-14.766,5.491-31.202,1.188-45.811c-4.755-16.136-27.807-14.392-40.75-13.358
			c-2.048,0.163-4.1,0.308-6.15,0.458c-3.904-30.951,5.042-96.416-41.308-97.792c-0.423-0.013-0.798,0.046-1.151,0.134
			c-4.617-4.026-10.822-4.647-15.553,1.131c-5.098,6.228-6.246,16.098-1.658,22.907c3.915,5.809,13.071,9.354,18.373,4.494
			c0.824,0.161,1.738,0.036,2.675-0.546c5.315-3.302,8.168-1.977,10.842,3.526c3.53,7.267,4.159,16.306,4.801,24.225
			c1.17,14.441-0.251,29.07,0.736,43.482c-12.079,0.867-24.146,1.889-36.112,3.639c-9.801,1.434-17.856,4.663-25.079,11.574
			c-7.125,6.818-12.153,15.791-17.326,24.08c-0.405,0.65-0.579,1.287-0.605,1.895c-0.976,0.101-1.951,0.195-2.926,0.303
			c-26.927,2.983-52.879,9.679-76.903,22.369c-20.995,11.089-40.305,27.11-52.69,47.56c-12.419,20.505-14.449,44.872-5.149,66.985
			c0.992,2.358,3.954,6.968,5.602,9.192c23.386,35.162,63.558,53.154,104.142,60.972c48.808,9.399,99.793,5.704,148.563-1.918
			c27.512-4.302,54.432-11.169,80.85-19.91c19.622-6.494,39.188-13.379,57.639-22.776c17.921-9.127,35.001-21.204,46.274-38.147
			c3.377-5.075,6.178-10.7,7.989-16.555c1.627-0.049,3.252-0.128,4.877-0.221c-4.465,13.358-7.396,27.473-8.68,41.449
			c-1.14,12.399-1.117,32.403,13.96,36.42c14.639,3.898,21.098-9.601,21.939-21.771c0.987-14.262-2.414-29.392-6.938-42.979
			c0.254-0.434,0.243-1.055-0.278-1.426c-0.088-0.062-0.181-0.118-0.269-0.181c-0.11-0.324-0.221-0.654-0.333-0.979
			c-1.293-3.721-2.683-7.803-4.792-11.26c0.062,0,0.12-0.003,0.182-0.004c2.172-0.021,4.011-1.804,4-4
			c-0.016-3.159-0.339-8-2.823-10.541c3.859-8.179,7.203-16.646,10.376-25.089C493.345,268.556,498.188,253.875,499.48,238.85z
			 M199.33,93.384c-0.089,1.298-0.347,3.551-1.544,4.289c-1.286,0.792-4.523-1.799-5.358-2.604
			c-3.109-2.998-2.485-8.543-0.791-12.072c1.954-4.071,4.28-4.394,6.676-1.031c0.05,0.203,0.093,0.408,0.14,0.611
			c-0.932-0.082-1.844,0.281-2.572,0.906c-2.357,2.024-3.158,5.545-2.889,8.528c0.165,1.826,1.486,4.21,3.635,3.066
			c2.164-1.153,1.422-4.374,0.61-6.083c-0.553-1.165-2.276-0.149-1.727,1.01c0.431,0.907,0.981,2.5,0.118,3.344
			c-0.364,0.355-0.68-1.987-0.684-2.293c-0.023-1.881,0.428-3.884,1.598-5.395c0.414-0.537,0.991-1.104,1.706-1.117
			c0.241-0.006,0.459,0.1,0.655,0.268C199.378,87.638,199.526,90.517,199.33,93.384z M210.078,92.624
			c-0.812,0.113-1.653,0.301-2.531,0.581c0.272-3.412-0.1-7.029-0.782-10.369c1.439,0.199,2.795,0.509,4.083,0.902
			C210.286,86.668,209.969,89.673,210.078,92.624z M422.919,226.28c-2.797,2.115-5.446,4.41-8.009,6.819
			c-0.396-1.341-0.622-2.924-0.71-4.669c3.679-3.292,7.431-6.493,11.328-9.521C424.606,221.355,423.743,223.812,422.919,226.28z
			 M421.824,229.678c-0.797,2.565-1.545,5.142-2.194,7.735c-1.784,0-3.039-0.874-3.896-2.343
			C417.704,233.196,419.725,231.389,421.824,229.678z M426.889,215.377c-4.403,3.278-8.614,6.788-12.725,10.42
			c0.027-1.695,0.142-3.475,0.319-5.28c4.659-4.444,9.7-8.458,15.146-11.88C428.69,210.879,427.775,213.125,426.889,215.377z
			 M422.167,206.718c2.039,0.198,4.087,0.311,6.14,0.387c-4.796,3.034-9.28,6.529-13.473,10.362
			c0.232-1.798,0.506-3.578,0.788-5.274C417.669,210.204,419.841,208.354,422.167,206.718z M416.189,208.926
			c0.188-1.04,0.369-2.025,0.535-2.928c0.839,0.149,1.681,0.265,2.522,0.38C418.199,207.189,417.179,208.039,416.189,208.926z
			 M390.024,192.114c17.66-14.343,37.854-26.492,59.734-33.134c-4.144,13.613-10.231,26.894-16.082,40.242
			c-6.435-0.023-12.826-0.212-19.098-1.853c-2.706-0.707-4.806,1.284-5.062,3.857c-1.207,12.047-9.558,42.311,8.43,43.982
			c-0.999,5.529-1.579,11.139-1.604,16.854c-1.076-2.64-2.239-5.239-3.51-7.808c-0.57-1.155-2.296-0.143-1.727,1.011
			c1.214,2.455,2.328,4.942,3.358,7.466c-1.817-0.703-3.645-1.386-5.483-2.032c-1.219-2.805-2.541-5.559-4.099-8.21
			c-0.651-1.111-2.381-0.104-1.727,1.01c1.206,2.055,2.269,4.169,3.253,6.321c-1.673-0.563-3.349-1.117-5.033-1.646
			c-0.69-1.457-1.27-2.971-1.691-4.562c-0.33-1.245-2.261-0.717-1.929,0.531c0.296,1.111,0.665,2.188,1.089,3.241
			c-1.684-0.512-3.37-1.011-5.062-1.489c-1.127-2.979-2.291-5.922-3.913-8.705c-0.647-1.113-2.377-0.107-1.727,1.01
			c1.314,2.258,2.317,4.628,3.253,7.034c-1.732-0.477-3.467-0.944-5.205-1.396c-1.278-2.299-2.697-4.517-4.271-6.647
			c-0.757-1.025-2.494-0.029-1.727,1.01c1.182,1.601,2.289,3.251,3.314,4.951c-2.039-0.516-4.08-1.023-6.126-1.516
			c-0.631-1.647-1.167-3.332-1.545-5.09c-0.271-1.26-2.197-0.726-1.928,0.531c0.294,1.371,0.688,2.698,1.14,4
			c-1.525-0.361-3.054-0.724-4.58-1.077c-0.309-0.841-0.582-1.696-0.813-2.57c-0.33-1.245-2.259-0.717-1.928,0.531
			c0.134,0.505,0.284,1.005,0.441,1.501c-1-0.236-1.999-0.477-2.998-0.713c-0.699-1.856-1.277-3.762-1.698-5.735
			c-0.27-1.261-2.196-0.727-1.929,0.531c0.339,1.589,0.78,3.136,1.3,4.651c-0.97-0.232-1.94-0.456-2.909-0.691
			c-0.712-1.749-1.287-3.557-1.763-5.375c-0.324-1.246-2.254-0.717-1.928,0.531c0.373,1.43,0.811,2.861,1.323,4.266
			c-1.185-0.289-2.368-0.575-3.551-0.867c-0.741-2.614-1.07-5.328-1.107-8.08c-0.018-1.288-2.018-1.29-2,0
			c0.034,2.566,0.322,5.088,0.917,7.539c-1.021-0.254-2.043-0.502-3.062-0.757c-0.453-1.447-0.821-2.928-1.189-4.397
			c-0.312-1.252-2.241-0.721-1.928,0.531c0.274,1.1,0.555,2.205,0.864,3.3c-1.46-0.366-2.917-0.733-4.375-1.101
			C355.519,223.903,371.878,206.85,390.024,192.114z M236.848,172.561c0.017,0.127,0.057,0.236,0.082,0.356
			c-2.088,0.144-4.175,0.288-6.264,0.431c-0.033-1.574-0.045-3.432-0.05-5.503c1.894-0.14,3.79-0.204,5.688-0.228
			C236.462,169.268,236.637,170.916,236.848,172.561z M236.129,165.621c-1.841,0.024-3.679,0.089-5.515,0.225
			c-0.002-1.307-0.002-2.676-0.006-4.111c1.729-0.216,3.463-0.327,5.201-0.373C235.902,162.782,236.011,164.202,236.129,165.621z
			 M235.678,159.374c-1.696,0.053-3.388,0.16-5.076,0.358c-0.004-1.456-0.013-2.951-0.027-4.5c1.615-0.231,3.236-0.388,4.866-0.47
			C235.511,156.301,235.59,157.837,235.678,159.374z M235.352,152.768c-1.607,0.082-3.207,0.241-4.8,0.463
			c-0.024-1.855-0.06-3.763-0.108-5.703c1.563-0.098,3.125-0.217,4.686-0.383C235.202,149.02,235.274,150.894,235.352,152.768z
			 M235.052,145.157c-1.551,0.165-3.105,0.288-4.662,0.383c-0.048-1.546-0.105-3.108-0.175-4.681
			c1.552-0.097,3.104-0.14,4.655-0.064C234.935,142.249,234.995,143.703,235.052,145.157z M234.77,138.817
			c-1.549-0.064-3.098-0.031-4.648,0.059c-0.049-0.943-0.102-1.889-0.16-2.834c1.55-0.113,3.102-0.17,4.654-0.19
			C234.675,136.839,234.721,137.829,234.77,138.817z M234.483,133.854c-1.552,0.021-3.102,0.08-4.649,0.198
			c-0.064-0.924-0.133-1.847-0.208-2.767c1.562-0.125,3.124-0.168,4.686-0.008C234.378,132.136,234.426,132.995,234.483,133.854z
			 M234.147,129.267c-1.564-0.127-3.125-0.083-4.695,0.04c-0.078-0.843-0.159-1.685-0.248-2.521
			c1.557-0.254,3.103-0.556,4.661-0.443C233.968,127.315,234.061,128.292,234.147,129.267z M233.645,124.339
			c-1.559-0.048-3.098,0.216-4.662,0.47c-0.078-0.656-0.158-1.31-0.243-1.958c1.476-0.602,2.989-1.101,4.548-1.298
			C233.419,122.48,233.534,123.41,233.645,124.339z M232.694,117.708c0.109,0.635,0.201,1.271,0.301,1.908
			c-1.547,0.203-3.047,0.65-4.535,1.222c-0.161-1.103-0.332-2.192-0.519-3.262c1.546-0.116,3.146-0.351,4.685-0.233
			C232.647,117.464,232.673,117.586,232.694,117.708z M232.251,115.339c-1.551-0.034-3.127,0.181-4.673,0.263
			c-0.132-0.684-0.27-1.359-0.414-2.023c0.052-0.021,0.103-0.022,0.156-0.054c1.35-0.786,2.782-1.159,4.256-1.343
			C231.822,113.231,232.044,114.286,232.251,115.339z M231.088,110.244c-1.511,0.208-2.979,0.611-4.38,1.353
			c-0.228-0.933-0.463-1.852-0.718-2.736c1.247-0.846,2.646-1.651,4.104-2.137C230.457,107.884,230.78,109.061,231.088,110.244z
			 M229.466,104.868c-1.436,0.471-2.809,1.191-4.084,2.01c-0.195-0.598-0.397-1.184-0.607-1.754
			c1.274-0.867,2.569-1.703,3.924-2.432C228.975,103.404,229.214,104.141,229.466,104.868z M227.94,100.866
			c-1.349,0.72-2.64,1.53-3.912,2.377c-0.43-1.01-0.881-1.979-1.369-2.87c1.127-1.097,2.336-2.094,3.613-2.993
			C226.878,98.5,227.423,99.673,227.94,100.866z M213.46,92.648c-0.464-0.076-0.936-0.131-1.424-0.145
			c-0.105-2.684,0.195-5.43,0.706-8.109c1.06,0.424,2.048,0.937,3.003,1.488C214.856,88.105,214.014,90.332,213.46,92.648z
			 M215.368,93.158c0.492-2.124,1.258-4.177,2.076-6.208c0.824,0.574,1.592,1.212,2.334,1.878c-1.131,1.604-2.01,3.336-2.733,5.149
			C216.507,93.654,215.95,93.377,215.368,93.158z M218.704,95.194c0.656-1.749,1.46-3.427,2.517-4.969
			c0.582,0.609,1.128,1.256,1.658,1.92c-1.134,1.279-2.202,2.612-3.243,3.969C219.331,95.794,219.026,95.475,218.704,95.194z
			 M221.606,98.627c-0.217-0.325-0.429-0.659-0.654-0.962c1.013-1.326,2.049-2.632,3.146-3.887c0.417,0.598,0.797,1.23,1.18,1.86
			C223.981,96.542,222.755,97.542,221.606,98.627z M166.124,195.717c6.726-7.17,14.744-9.319,24.174-10.698
			c19.267-2.817,38.828-3.106,58.199-4.907c11-1.022,33.106-4.491,36.221,10.079c2.488,11.648,0.052,24.459-1.598,36.371
			c-0.517-0.939-1.082-1.856-1.688-2.75c-0.722-1.059-2.455-0.06-1.728,1.01c1.016,1.492,1.912,3.031,2.623,4.654
			c-1.543-0.295-3.086-0.592-4.629-0.888c-0.551-1.876-0.998-3.786-1.834-5.571c-0.547-1.166-2.271-0.15-1.727,1.01
			c0.625,1.334,1.03,2.742,1.428,4.152c-1.443-0.275-2.885-0.551-4.328-0.829c-0.416-1.495-0.852-2.986-1.236-4.491
			c-0.318-1.249-2.248-0.719-1.928,0.531c0.303,1.185,0.639,2.359,0.971,3.535c-0.899-0.174-1.802-0.346-2.702-0.522
			c-0.667-0.131-1.33-0.277-1.995-0.417c-0.438-1.418-0.802-2.861-1.104-4.319c-0.262-1.263-2.188-0.728-1.928,0.531
			c0.23,1.12,0.515,2.224,0.825,3.318c-1.111-0.247-2.222-0.5-3.328-0.763c-0.545-1.555-0.947-3.152-1.1-4.81
			c-0.115-1.273-2.117-1.284-2,0c0.135,1.47,0.436,2.884,0.847,4.268c-0.922-0.228-1.843-0.457-2.763-0.691
			c-0.465-1.335-0.908-2.677-1.289-4.04c-0.346-1.241-2.274-0.714-1.928,0.531c0.273,0.98,0.581,1.95,0.904,2.915
			c-1.143-0.298-2.286-0.596-3.427-0.899c-0.436-1.182-0.865-2.365-1.314-3.541c-0.455-1.193-2.389-0.676-1.928,0.531
			c0.301,0.79,0.59,1.584,0.882,2.378c-0.729-0.195-1.46-0.39-2.189-0.585c-0.495-0.912-0.973-1.833-1.438-2.762
			c-0.577-1.154-2.302-0.141-1.727,1.01c0.176,0.352,0.36,0.698,0.538,1.049c-0.922-0.246-1.844-0.492-2.768-0.735
			c-0.593-1.278-1.209-2.548-1.707-3.868c-0.451-1.194-2.385-0.678-1.93,0.531c0.347,0.918,0.755,1.809,1.168,2.696
			c-0.946-0.244-1.893-0.489-2.842-0.726c-0.67-1.453-1.318-2.915-2.064-4.331c-0.602-1.142-2.327-0.13-1.727,1.01
			c0.471,0.894,0.898,1.808,1.32,2.726c-0.967-0.232-1.932-0.471-2.901-0.69c-0.605-1.524-1.184-3.059-1.76-4.595
			c-0.448-1.196-2.383-0.679-1.929,0.531c0.445,1.186,0.896,2.369,1.354,3.549c-0.495-0.106-0.986-0.226-1.482-0.328
			c-0.749-0.154-1.501-0.277-2.251-0.414c-0.238-1.479-0.322-2.992-0.428-4.464c-0.09-1.278-2.091-1.288-2,0
			c0.098,1.364,0.194,2.737,0.381,4.091c-1.38-0.225-2.762-0.426-4.145-0.605c-0.438-1.419-0.924-2.82-1.529-4.189
			c-0.52-1.177-2.243-0.158-1.727,1.01c0.42,0.951,0.771,1.924,1.089,2.908c-1.036-0.117-2.073-0.227-3.11-0.321
			c-0.496-1.347-0.99-2.696-1.619-3.993c-0.562-1.161-2.286-0.146-1.727,1.01c0.444,0.916,0.815,1.863,1.174,2.814
			c-0.779-0.061-1.557-0.131-2.336-0.182c-0.584-1.211-1.039-2.48-1.383-3.801c-0.325-1.248-2.254-0.719-1.93,0.531
			c0.279,1.07,0.632,2.121,1.053,3.141c-1.507-0.079-3.015-0.146-4.524-0.195c-0.507-0.896-0.995-1.803-1.459-2.723
			c-0.58-1.152-2.306-0.139-1.727,1.01c0.28,0.557,0.581,1.104,0.878,1.652c-0.715-0.018-1.43-0.037-2.146-0.048
			c-0.416-0.764-0.79-1.548-1.079-2.375c-0.424-1.21-2.355-0.689-1.93,0.531c0.22,0.627,0.487,1.228,0.772,1.819
			c-0.79-0.008-1.581-0.019-2.372-0.021c-0.713-1.254-1.286-2.598-1.838-3.92c-0.49-1.172-2.426-0.658-1.93,0.531
			c0.477,1.141,0.965,2.285,1.521,3.388c-0.679,0-1.356-0.003-2.035-0.001c-0.789-1.396-1.501-2.84-2.427-4.156
			c-0.736-1.047-2.471-0.049-1.727,1.01c0.705,1.004,1.287,2.082,1.873,3.156c-0.322,0.002-0.645,0.003-0.967,0.005
			c-0.301,0.002-0.6,0.011-0.9,0.015c-0.786-1.173-1.481-2.41-2.256-3.59c-0.703-1.073-2.436-0.072-1.727,1.01
			c0.566,0.862,1.096,1.746,1.642,2.617c-0.7,0.013-1.399,0.018-2.099,0.033c-0.606-0.949-1.196-1.908-1.792-2.865
			c-0.68-1.092-2.411-0.088-1.727,1.01c0.396,0.638,0.786,1.279,1.181,1.917c-0.479,0.014-0.957,0.023-1.437,0.038
			c-0.706-1.131-1.267-2.33-1.794-3.561c-0.508-1.182-2.23-0.162-1.727,1.01c0.383,0.895,0.787,1.773,1.247,2.622
			c-0.533,0.02-1.067,0.03-1.601,0.051c-0.023-0.101-0.045-0.2-0.107-0.304c-0.626-1.043-1.239-2.093-1.789-3.18
			c-0.581-1.152-2.307-0.139-1.727,1.01c0.439,0.87,0.926,1.715,1.422,2.553c-0.448,0.02-0.896,0.029-1.345,0.049
			c-0.513-1.07-1.055-2.126-1.53-3.215c-0.516-1.179-2.238-0.159-1.727,1.01c0.341,0.781,0.72,1.543,1.098,2.306
			c-0.206,0.011-0.412,0.019-0.618,0.028c-0.385-0.714-0.772-1.426-1.14-2.15c-0.582-1.15-2.307-0.139-1.727,1.01
			c0.215,0.423,0.441,0.839,0.666,1.256c-0.217,0.013-0.432,0.021-0.648,0.034c-0.443-0.756-0.877-1.517-1.271-2.3
			c-0.582-1.151-2.307-0.139-1.727,1.01c0.246,0.487,0.508,0.965,0.775,1.44c-0.358,0.023-0.717,0.05-1.076,0.073
			c-0.168-0.451-0.335-0.902-0.512-1.35c-0.201-0.507-0.662-0.855-1.23-0.699c-0.482,0.133-0.899,0.723-0.699,1.23
			c0.126,0.318,0.244,0.639,0.365,0.959c-0.552,0.037-1.104,0.068-1.654,0.111C156.837,207.783,160.895,201.292,166.124,195.717z
			 M111.807,238.753c-0.791,1.622-1.639,3.217-2.484,4.813c-1.094-1.035-2.163-2.098-3.242-3.148
			c0.84-1.639,1.661-3.285,2.451-4.947C109.615,236.569,110.7,237.666,111.807,238.753z M26.946,347.787
			c1.669-0.039,3.338-0.055,5.007-0.062c2.48,2.479,4.961,4.962,7.442,7.441c-1.955-0.061-3.91-0.119-5.865-0.19
			C31.407,352.511,29.257,350.072,26.946,347.787z M30.795,354.864c-1.8-0.073-3.601-0.134-5.401-0.222
			c-1.764-2.228-3.623-4.375-5.393-6.597c1.368-0.075,2.736-0.135,4.104-0.184C26.469,350.067,28.669,352.431,30.795,354.864z
			 M34.779,347.725c2.454,0.015,4.908,0.062,7.362,0.127c2.501,2.613,5.148,5.086,7.747,7.604c-2.586-0.063-5.173-0.125-7.757-0.199
			c-0.043-0.146-0.113-0.294-0.248-0.429C39.514,352.46,37.147,350.092,34.779,347.725z M45.029,347.944
			c2.776,0.091,5.552,0.21,8.328,0.337c2.358,2.606,4.843,5.093,7.45,7.452c-2.678-0.067-5.356-0.14-8.031-0.203
			c-0.037-0.055-0.057-0.111-0.109-0.163C50.149,352.866,47.536,350.456,45.029,347.944z M56.185,348.41
			c2.486,0.12,4.973,0.246,7.46,0.372c2.228,2.361,4.391,4.783,6.535,7.222c-0.797-0.038-1.594-0.07-2.389-0.094
			c-1.305-0.036-2.604-0.064-3.907-0.099C61.19,353.476,58.626,351.004,56.185,348.41z M66.499,348.92
			c2.465,0.122,4.932,0.236,7.398,0.343c2.38,2.323,4.599,4.803,6.658,7.421c-2.514-0.153-5.045-0.355-7.58-0.52
			C70.843,353.727,68.694,351.301,66.499,348.92z M69.032,341.038c7.622-3.131,15.219-6.319,22.764-9.635
			c5.246-2.304,10.881-4.297,16.326-6.628c-5.059,6.562-10.392,13.056-17.52,16.947C83.409,341.688,76.219,341.392,69.032,341.038z
			 M76.835,349.385c2.035,0.079,4.072,0.148,6.108,0.204c2.478,2.381,4.974,4.743,7.315,7.258c-2.33,0.112-4.692,0.08-7.076-0.023
			C81.214,354.212,79.098,351.729,76.835,349.385z M85.882,349.645c1.08,0.021,2.16,0.05,3.24,0.061
			c0.998,0.446,2.182,0.529,3.414-0.023c0.497-0.224,0.975-0.477,1.457-0.723c2.129,2.11,4.403,4.071,6.618,6.095
			c-2.54,0.841-5.148,1.338-7.808,1.603C90.625,354.192,88.259,351.914,85.882,349.645z M95.817,347.957
			c1.538-0.904,2.994-1.93,4.396-3.03c2.163,2.423,4.146,5.01,6.367,7.372c-1.268,0.771-2.558,1.425-3.869,1.972
			C100.427,352.15,98.048,350.129,95.817,347.957z M101.758,343.661c0.798-0.684,1.567-1.403,2.329-2.137
			c2.479,2.333,4.875,4.75,7.307,7.134c-0.283,0.25-0.559,0.507-0.846,0.754c-0.748,0.645-1.508,1.221-2.275,1.764
			C105.983,348.782,103.959,346.142,101.758,343.661z M105.497,340.105c1.094-1.122,2.147-2.294,3.184-3.485
			c2.869,2.12,5.73,4.238,8.344,6.653c-1.341,1.384-2.717,2.736-4.138,4.048C110.427,344.912,108.003,342.467,105.497,340.105z
			 M109.979,335.105c1.311-1.562,2.577-3.158,3.832-4.758c2.666,2.556,5.543,4.877,8.131,7.508
			c-1.157,1.344-2.332,2.671-3.543,3.966C115.762,339.386,112.876,337.242,109.979,335.105z M115.052,328.767
			c0.749-0.963,1.492-1.917,2.236-2.866c2.602,2.696,5.321,5.273,8.102,7.788c-0.711,0.884-1.428,1.763-2.154,2.632
			C120.622,333.683,117.724,331.35,115.052,328.767z M118.542,324.316c0.681-0.858,1.36-1.719,2.045-2.55
			c0.443-0.539,0.902-1.062,1.351-1.599c2.429,2.807,5.001,5.475,7.709,8.006c-0.995,1.322-1.993,2.644-3.017,3.943
			C123.852,329.602,121.138,327.02,118.542,324.316z M123.302,318.701c-0.023-0.026-0.051-0.034-0.075-0.058
			c1.139-1.337,2.294-2.658,3.455-3.976c2.475,2.481,4.935,4.979,7.332,7.533c-1.049,1.456-2.09,2.918-3.158,4.359
			C128.207,324.072,125.683,321.455,123.302,318.701z M128.011,313.169c0.839-0.941,1.684-1.878,2.529-2.813
			c2.432,2.232,4.684,4.64,6.858,7.121c-0.731,1.026-1.457,2.054-2.19,3.08C132.852,318.053,130.439,315.603,128.011,313.169z
			 M131.878,308.87c1.09-1.202,2.182-2.399,3.273-3.6c2.219,2.064,4.214,4.347,6.235,6.604c-0.114,0.159-0.231,0.318-0.345,0.479
			c-0.816,1.147-1.638,2.301-2.455,3.451C136.462,313.388,134.255,311.046,131.878,308.87z M136.497,303.793
			c0.672-0.737,1.338-1.479,2.008-2.221c2.115,1.865,4.186,3.781,6.269,5.682c-0.737,0.987-1.472,1.976-2.192,2.963
			C140.614,308.016,138.663,305.801,136.497,303.793z M139.844,300.093c1.32-1.465,2.633-2.936,3.937-4.413
			c1.974,1.689,3.817,3.533,5.7,5.331c-1.17,1.552-2.343,3.097-3.504,4.638C143.94,303.787,141.915,301.915,139.844,300.093z
			 M145.077,294.184c0.736-0.846,1.468-1.694,2.195-2.548c1.727,1.789,3.455,3.574,5.288,5.246
			c-0.622,0.845-1.247,1.687-1.875,2.524C148.833,297.646,147.012,295.85,145.077,294.184z M148.563,290.104
			c0.678-0.808,1.343-1.625,2.01-2.441c1.758,1.574,3.445,3.223,5.048,4.951c-0.624,0.892-1.253,1.779-1.892,2.661
			C151.936,293.628,150.251,291.861,148.563,290.104z M151.835,286.113c0.447-0.558,0.881-1.127,1.322-1.689
			c1.916,1.1,3.838,2.191,5.652,3.446c-0.66,1.029-1.336,2.052-2.027,3.065C155.208,289.253,153.556,287.646,151.835,286.113z
			 M154.399,282.837c0.023-0.029,0.048-0.06,0.071-0.091c1.046-1.377,0.945-2.729,0.254-3.779c2.975,0.301,5.963,0.408,8.952,0.44
			c-1.16,2.311-2.441,4.568-3.811,6.785C158.1,284.984,156.253,283.91,154.399,282.837z M153.869,276.891
			c-0.356-0.041-0.602,0.092-0.759,0.298c-0.278-0.339-0.625-0.651-1.075-0.914c-0.666-0.389-1.321-0.791-1.982-1.188
			c0.956-1.477,1.948-2.934,3.099-4.249c3.863,2.163,7.801,4.146,11.815,5.879c-0.106,0.236-0.226,0.469-0.335,0.704
			C161.038,277.396,157.441,277.301,153.869,276.891z M148.338,274.059c-0.979-0.603-1.95-1.216-2.918-1.833
			c1.058-1.347,2.062-2.732,3.079-4.111c0.955,0.583,1.914,1.159,2.881,1.719C150.264,271.155,149.283,272.6,148.338,274.059z
			 M143.745,271.143c-1.027-0.669-2.025-1.374-3.039-2.062c0.912-1.399,1.758-2.841,2.596-4.29c1.164,0.772,2.333,1.534,3.513,2.274
			C145.806,268.438,144.805,269.813,143.745,271.143z M139.076,267.977c-1.268-0.876-2.511-1.783-3.758-2.687
			c0.742-1.501,1.534-2.972,2.46-4.355c1.283,0.926,2.564,1.852,3.867,2.74C140.816,265.126,139.987,266.578,139.076,267.977z
			 M133.686,264.126c-1.021-0.752-2.023-1.525-3.03-2.295c0.671-1.558,1.397-3.088,2.159-4.603c1.111,0.857,2.223,1.718,3.352,2.551
			C135.241,261.166,134.438,262.629,133.686,264.126z M129.025,260.597c-1.263-0.98-2.513-1.979-3.755-2.983
			c0.632-1.604,1.353-3.165,2.154-4.688c1.25,1.033,2.512,2.056,3.786,3.061C130.443,257.503,129.708,259.037,129.025,260.597z
			 M123.645,256.276c-1.852-1.524-3.676-3.082-5.485-4.658c0.646-1.647,1.345-3.277,2.171-4.835c1.814,1.63,3.654,3.238,5.525,4.815
			C125.043,253.121,124.302,254.681,123.645,256.276z M116.579,250.238c-1.943-1.719-3.855-3.474-5.753-5.247
			c0.839-1.591,1.679-3.179,2.478-4.785c1.814,1.756,3.65,3.501,5.531,5.217C117.981,246.975,117.249,248.591,116.579,250.238z
			 M103.641,230.403c1.119,1.191,2.259,2.38,3.411,3.564c-0.784,1.684-1.618,3.344-2.469,4.998c-1.105-1.09-2.205-2.187-3.298-3.291
			C102.073,233.918,102.864,232.164,103.641,230.403z M101.262,230.885c-0.488,1.087-0.981,2.173-1.471,3.259
			c-0.715-0.731-1.432-1.459-2.139-2.199C98.849,231.572,100.057,231.232,101.262,230.885z M77.251,239.841
			c3.945-1.877,7.979-3.555,12.076-5.07c3.832,4.1,7.752,8.107,11.764,12.012c-22.756,8.263-45.772,15.778-68.648,23.698
			C45.122,257.499,61.063,247.542,77.251,239.841z M20.075,285.813c1.389-2.143,2.883-4.201,4.434-6.214
			c27.083-9.562,54.446-18.318,81.412-28.213c2.16,2.015,4.36,3.981,6.58,5.928c-1.9,0.391-3.859,0.604-5.709,0.919
			c-4.437,0.752-8.77,2.265-13.035,3.665c-9.329,3.062-18.454,6.713-27.572,10.346c-16.011,6.379-32.022,12.858-48.579,17.662
			C18.387,288.532,19.199,287.165,20.075,285.813z M11.016,340.727c-0.227,0.023-0.432,0.08-0.639,0.132
			c-3.938-14.703-2.564-29.646,3.594-43.714c18.426-4.896,36.123-12.06,53.809-19.114c9.123-3.64,18.262-7.208,27.572-10.346
			c4.268-1.438,8.605-2.829,13.035-3.666c3.241-0.611,6.438-0.986,9.504-2.105c8.646,7.182,17.742,13.807,27.422,19.657
			c-8.642,10.918-18.426,20.879-27.611,31.338c-7.845,5.865-18.309,8.584-27.174,12.535c-11.742,5.235-23.647,10.095-35.578,14.883
			C40.303,339.615,25.663,339.189,11.016,340.727z M14.97,352.208c-0.278-0.474-0.614-0.832-0.974-1.123
			c-0.373-0.843-0.721-1.687-1.057-2.531c1.553-0.146,3.105-0.268,4.658-0.372c1.666,2.156,3.443,4.226,5.168,6.335
			c-2.211-0.119-4.422-0.251-6.635-0.4C15.742,353.482,15.35,352.852,14.97,352.208z M451.159,311.627
			c-0.438,6.757-2.634,13.176-5.932,19.131c-1.822-0.895-3.753-1.601-5.64-2.394c-1.188-0.501-1.7,1.437-0.53,1.928
			c1.721,0.726,3.503,1.365,5.183,2.182c-1.657,2.771-3.544,5.44-5.601,7.985c-1.642-0.543-3.233-1.215-4.812-1.993
			c-1.152-0.569-2.166,1.154-1.01,1.727c1.46,0.721,2.932,1.375,4.44,1.92c-1.869,2.193-3.853,4.294-5.908,6.286
			c-1.115-0.896-2.245-1.768-3.522-2.433c-1.143-0.596-2.154,1.13-1.01,1.727c1.107,0.577,2.107,1.312,3.084,2.082
			c-1.715,1.595-3.468,3.12-5.236,4.564c-0.602-0.474-1.204-0.942-1.838-1.374c-1.07-0.728-2.069,1.007-1.01,1.728
			c0.431,0.292,0.845,0.604,1.256,0.922c-1.332,1.05-2.668,2.057-3.997,3.015c-0.304,0.219-0.618,0.42-0.924,0.637
			c-1.435-1.11-2.875-2.212-4.325-3.3c-1.033-0.773-2.028,0.963-1.01,1.728c1.213,0.91,2.42,1.827,3.62,2.753
			c-2.104,1.435-4.232,2.83-6.405,4.155c-1.395-1.439-2.741-2.913-4.003-4.479c-0.811-1.005-2.215,0.42-1.414,1.414
			c1.158,1.438,2.393,2.795,3.664,4.122c-1.629,0.965-3.271,1.911-4.933,2.822c-1.283-1.234-2.601-2.432-4.021-3.516
			c-1.025-0.783-2.02,0.955-1.01,1.728c1.123,0.856,2.175,1.803,3.196,2.778c-1.66,0.888-3.335,1.754-5.022,2.594
			c-1.155-1.621-2.557-3.037-3.962-4.442c-0.912-0.913-2.327,0.501-1.414,1.414c1.246,1.246,2.517,2.497,3.561,3.923
			c-1.496,0.727-2.998,1.44-4.511,2.134c-1.381-1.653-2.627-3.424-4.136-4.971c-0.901-0.925-2.314,0.49-1.414,1.414
			c1.337,1.372,2.472,2.915,3.673,4.401c-0.977,0.438-1.952,0.879-2.934,1.305c-1.848-2.127-3.833-4.128-5.825-6.12
			c-0.912-0.913-2.327,0.501-1.414,1.414c1.811,1.812,3.623,3.622,5.325,5.534c-2.211,0.938-4.43,1.859-6.659,2.748
			c-1.69-1.795-3.334-3.63-5.252-5.196c-0.989-0.809-2.414,0.598-1.414,1.414c1.694,1.385,3.172,2.979,4.659,4.571
			c-1.393,0.544-2.785,1.083-4.182,1.61c-0.024-0.03-0.033-0.065-0.063-0.097l-3-3c-0.913-0.913-2.327,0.501-1.414,1.414
			l2.444,2.444c-1.656,0.617-3.312,1.229-4.971,1.828c-0.815-0.929-1.686-1.812-2.561-2.688c-0.912-0.913-2.327,0.501-1.414,1.414
			c0.657,0.657,1.324,1.314,1.961,1.998c-1.363,0.484-2.733,0.953-4.099,1.431c-1.256-1.342-2.516-2.674-3.948-3.843
			c-0.99-0.808-2.414,0.599-1.414,1.414c1.187,0.967,2.253,2.047,3.297,3.148c-1.319,0.457-2.634,0.932-3.955,1.382
			c-0.765-1.071-1.485-2.176-2.271-3.242c-0.757-1.026-2.493-0.03-1.728,1.01c0.7,0.951,1.353,1.93,2.022,2.895
			c-2.211,0.744-4.42,1.494-6.639,2.219c-0.565-0.861-1.09-1.756-1.657-2.622c-0.704-1.073-2.438-0.072-1.728,1.01
			c0.487,0.743,0.949,1.5,1.425,2.246c-1.724,0.557-3.446,1.112-5.175,1.656c-0.822-1.243-1.734-2.432-2.68-3.614
			c-0.804-1.009-2.21,0.417-1.414,1.414c0.73,0.918,1.451,1.85,2.122,2.812c-1.313,0.409-2.624,0.826-3.94,1.228
			c-0.943-1.19-1.812-2.438-2.61-3.752c-0.667-1.102-2.397-0.097-1.728,1.01c0.705,1.163,1.463,2.282,2.277,3.358
			c-1.881,0.563-3.758,1.142-5.646,1.688c-0.896-0.935-1.643-2.034-2.405-3.056c-0.763-1.021-2.5-0.024-1.728,1.01
			c0.666,0.892,1.313,1.806,2.026,2.655c-1.876,0.535-3.754,1.062-5.636,1.576c-0.834-1.283-1.745-2.517-2.664-3.741
			c-0.765-1.02-2.501-0.023-1.728,1.01c0.809,1.077,1.61,2.159,2.36,3.275c-1.324,0.356-2.647,0.72-3.976,1.064
			c-0.578-0.935-1.154-1.872-1.658-2.851c-0.592-1.146-2.316-0.135-1.728,1.01c0.415,0.807,0.882,1.583,1.356,2.354
			c-1.97,0.505-3.938,1.01-5.914,1.489c-0.877-1.539-1.96-2.945-3.372-4.057c-1.002-0.788-2.428,0.617-1.414,1.414
			c1.111,0.874,2.004,1.947,2.746,3.124c-1.822,0.435-3.645,0.879-5.474,1.292c-1.104-1.454-2.22-2.901-3.358-4.33
			c-0.806-1.008-2.21,0.417-1.414,1.414c0.895,1.121,1.772,2.255,2.646,3.395c-2.396,0.529-4.799,1.041-7.204,1.525
			c-1.214-1.411-2.363-2.877-3.526-4.334c-0.805-1.008-2.21,0.417-1.414,1.414c0.896,1.121,1.779,2.251,2.691,3.354
			c-2.103,0.413-4.205,0.825-6.312,1.209c-0.988-1.667-2.146-3.226-3.309-4.775c-0.765-1.02-2.501-0.023-1.728,1.01
			c1.015,1.354,2.026,2.713,2.927,4.144c-1.502,0.269-3.003,0.533-4.507,0.786c-0.912-1.694-1.99-3.258-3.35-4.642
			c-0.905-0.921-2.318,0.494-1.414,1.414c1.065,1.086,1.93,2.282,2.68,3.576c-2.396,0.393-4.795,0.774-7.197,1.136
			c-1.11-1.761-2.272-3.483-3.567-5.126c-0.799-1.013-2.203,0.413-1.414,1.414c1.019,1.293,1.941,2.647,2.828,4.031
			c-2.158,0.313-4.317,0.621-6.479,0.909c-0.972-1.353-1.911-2.726-2.778-4.152c-0.668-1.102-2.398-0.097-1.727,1.01
			c0.713,1.176,1.476,2.315,2.265,3.437c-1.501,0.195-3.001,0.392-4.504,0.574c-1.3-1.974-2.681-3.889-4.19-5.723
			c-0.82-0.996-2.227,0.427-1.414,1.414c1.215,1.475,2.342,3.004,3.405,4.578c-2.194,0.26-4.389,0.512-6.585,0.749
			c-1.154-2.233-2.366-4.433-3.75-6.539c-0.704-1.073-2.438-0.072-1.727,1.01c1.219,1.857,2.3,3.788,3.332,5.748
			c-1.972,0.207-3.942,0.415-5.915,0.604c-1.011-2.396-2.255-4.676-3.69-6.861c-0.704-1.073-2.437-0.072-1.727,1.01
			c1.271,1.937,2.387,3.943,3.318,6.045c-1.848,0.173-3.694,0.353-5.543,0.51c-1.624-2.457-3.209-4.938-4.549-7.563
			c-0.586-1.149-2.312-0.137-1.727,1.01c1.191,2.336,2.575,4.557,4.01,6.748c-1.885,0.156-3.77,0.308-5.655,0.45
			c-1.431-1.861-2.819-3.753-4.128-5.708c-0.713-1.065-2.447-0.065-1.727,1.01c1.114,1.664,2.289,3.28,3.489,4.877
			c-2.125,0.155-4.251,0.305-6.377,0.445c-0.743-2.038-1.786-3.977-2.886-5.832c-0.656-1.108-2.386-0.104-1.727,1.01
			c0.943,1.593,1.838,3.231,2.52,4.951c-1.512,0.092-3.03,0.18-4.562,0.255c-1.318-2.012-2.345-4.194-3.129-6.477
			c-0.418-1.212-2.35-0.691-1.93,0.53c0.732,2.131,1.67,4.142,2.809,6.045c-1.651,0.072-3.305,0.144-4.976,0.194l-3.005-6.01
			c-0.576-1.153-2.302-0.142-1.727,1.01l2.531,5.062c-1.183,0.029-2.365,0.061-3.557,0.081c-0.758-1.801-1.597-3.562-2.748-5.153
			c-0.748-1.034-2.484-0.037-1.727,1.01c0.943,1.304,1.664,2.723,2.312,4.18c-2.046,0.023-4.1,0.037-6.166,0.028
			c-1.129-2.079-2.252-4.16-3.42-6.218c-0.637-1.121-2.364-0.113-1.727,1.01c0.975,1.716,1.914,3.452,2.854,5.188
			c-2.092-0.021-4.189-0.055-6.299-0.11c-1.307-2.288-2.295-4.682-2.727-7.348c-0.207-1.271-2.133-0.729-1.93,0.53
			c0.392,2.415,1.233,4.64,2.342,6.756c-1.955-0.065-3.914-0.146-5.879-0.242c-1.332-2.357-2.387-4.831-3.033-7.544
			c-0.299-1.255-2.229-0.724-1.93,0.53c0.585,2.453,1.494,4.729,2.629,6.903c-2.278-0.13-4.562-0.281-6.849-0.458
			c-1.301-2.15-2.336-4.463-3.452-6.716c-0.572-1.155-2.297-0.142-1.727,1.01c0.91,1.837,1.768,3.713,2.758,5.51
			c-2.275-0.191-4.551-0.396-6.826-0.642c-1.229-3.204-2.531-6.374-4.205-9.378c-0.627-1.127-2.355-0.118-1.727,1.01
			c1.453,2.608,2.616,5.344,3.698,8.116c-2.054-0.235-4.106-0.484-6.157-0.764c-0.997-2.162-1.787-4.421-2.713-6.623
			c-0.492-1.171-2.429-0.657-1.93,0.53c0.803,1.91,1.508,3.865,2.317,5.771c-1.868-0.271-3.733-0.556-5.594-0.864
			c-0.846-2.272-1.817-4.498-2.896-6.678c-0.571-1.156-2.297-0.143-1.727,1.01c0.857,1.733,1.641,3.495,2.346,5.288
			c-1.646-0.289-3.29-0.588-4.928-0.908c-1.507-2.993-3.04-5.973-4.691-8.89c-0.635-1.122-2.363-0.114-1.727,1.01
			c1.369,2.419,2.654,4.883,3.914,7.36c-1.109-0.229-2.221-0.448-3.324-0.692c-1.304-2.719-2.525-5.476-3.863-8.178
			c-0.572-1.155-2.297-0.142-1.727,1.01c1.08,2.182,2.081,4.398,3.112,6.603c-1.563-0.363-3.126-0.729-4.677-1.123
			c-1.066-3.233-1.962-6.52-3.709-9.488c-0.652-1.11-2.383-0.104-1.727,1.01c1.45,2.466,2.316,5.171,3.186,7.879
			c-1.606-0.429-3.214-0.854-4.805-1.318c-1.302-3.405-2.631-6.794-3.553-10.33c-0.326-1.247-2.255-0.718-1.93,0.53
			c0.811,3.106,1.936,6.1,3.08,9.09c-0.541-0.165-1.09-0.312-1.629-0.481c-1.985-2.611-3.566-5.479-4.521-8.639
			c-0.373-1.231-2.303-0.706-1.93,0.53c0.77,2.541,1.914,4.893,3.326,7.094c-1.354-0.452-2.704-0.913-4.044-1.395
			c-0.686-3.535-2.084-6.871-3.353-10.229c-0.451-1.194-2.386-0.679-1.93,0.53c1.109,2.936,2.316,5.852,3.062,8.897
			c-1.217-0.454-2.426-0.921-3.629-1.399c-0.004-0.011,0-0.019-0.004-0.028c-0.951-2.462-1.549-5.039-2.5-7.5
			c-0.461-1.19-2.395-0.674-1.93,0.53c0.761,1.969,1.303,4.009,1.973,6.006c-1.3-0.541-2.592-1.098-3.873-1.669
			c-0.697-2.425-1.182-4.892-1.67-7.367c-0.25-1.266-2.178-0.729-1.93,0.53c0.383,1.937,0.762,3.865,1.238,5.772
			c-1.297-0.604-2.582-1.224-3.857-1.861c-1.02-2.56-1.979-5.144-3.053-7.682c-0.501-1.184-2.223-0.163-1.727,1.01
			c0.741,1.751,1.427,3.524,2.115,5.296c-0.561-0.294-1.127-0.578-1.683-0.879c-1.3-2.41-2.124-4.984-2.604-7.688
			c-0.227-1.27-2.153-0.729-1.93,0.531c0.338,1.895,0.863,3.729,1.564,5.498c-0.727-0.416-1.46-0.822-2.179-1.252
			c-0.823-2.592-1.604-5.195-2.456-7.777c-0.402-1.219-2.334-0.697-1.93,0.531c0.619,1.873,1.199,3.761,1.783,5.646
			c-0.705-0.442-1.418-0.874-2.115-1.329c-0.889-2.22-1.783-4.439-2.84-6.587c-0.569-1.157-2.294-0.144-1.727,1.01
			c0.579,1.177,1.105,2.377,1.61,3.586c-0.803-0.556-1.612-1.103-2.401-1.676c-1.036-2.93-2.369-5.742-3.381-8.681
			c-0.418-1.212-2.351-0.691-1.93,0.531c0.69,2.002,1.528,3.945,2.322,5.907c-0.873-0.675-1.752-1.343-2.607-2.041
			c0.21-0.216,0.327-0.518,0.215-0.897c-1.047-3.541-2.455-6.96-3.5-10.5c-0.365-1.234-2.295-0.708-1.93,0.531
			c0.902,3.054,2.062,6.021,3.037,9.049c-1.061-0.909-2.119-1.822-3.148-2.771c-0.555-3.01-1.494-5.911-2.459-8.81
			c-0.406-1.218-2.338-0.695-1.93,0.53c0.639,1.916,1.256,3.836,1.77,5.782c-4.057-3.977-7.85-8.271-11.329-12.923
			c16.396,0.865,32.775,0.861,49.185,1.57c16.085,0.695,30.633,2.953,44.027-7.967c12.953-10.562,22.453-24.824,32.008-38.351
			c9.559-13.53,20.989-26.479,27.021-42.083c0.838-2.168-0.271-3.771-1.908-4.452c-0.266-0.181-0.556-0.341-0.886-0.469
			c-12.286-4.737-23.484-12.443-33.844-20.457c-8.815-6.818-17.188-14.274-24.985-22.253c15.309-3.448,31.07-5.204,46.513-6.166
			c13.509-0.842,27.06-0.904,40.587-0.6c15.178,0.343,29.567,3.912,44.153,7.842c14.794,3.984,29.735,6.566,44.74,9.58
			c15.521,3.118,30.922,6.826,46.21,10.938c15.019,4.038,30.249,7.145,45.336,10.913c16.956,4.236,34.184,9.202,49.403,18
			C441.75,285.662,452.146,296.432,451.159,311.627z M458.659,315.108c0.082-0.599,0.15-1.198,0.208-1.798
			c0.432,0.065,0.864,0.107,1.297,0.166c0.295,0.507,0.595,1.01,0.899,1.511C460.261,315.03,459.461,315.074,458.659,315.108z
			 M491.425,231.148c-3.325-2.969-6.966-5.633-10.494-8.365C488.102,221.338,490.72,225.618,491.425,231.148z M478.543,223.439
			c4.407,3.457,9.052,6.748,13.088,10.621c0.061,2.589-0.164,5.271-0.441,7.651c-5.696-5.333-12.507-9.557-17.722-15.419
			C474.931,225.094,476.61,224.122,478.543,223.439z M472.001,227.643c5.551,6.25,12.999,10.588,18.869,16.465
			c-0.394,2.707-0.906,5.404-1.508,8.093c-7.311-6.07-13.307-13.716-21.077-19.25C469.283,230.968,470.515,229.179,472.001,227.643z
			 M466.005,314.019c0.139,0.219,0.278,0.435,0.419,0.65c-1.029,0.063-2.061,0.127-3.091,0.189c-0.227-0.36-0.447-0.724-0.669-1.088
			C463.776,313.878,464.891,313.954,466.005,314.019z M468.735,314.536c-0.091-0.134-0.18-0.27-0.271-0.403
			c1.171,0.041,2.345,0.068,3.52,0.08c0.017,0.05,0.037,0.1,0.053,0.146C470.936,314.408,469.836,314.474,468.735,314.536z
			 M470.558,328.355c-0.627-0.315-1.253-0.635-1.877-0.956c0.164-0.515,0.321-1.034,0.491-1.547
			C469.679,326.654,470.134,327.494,470.558,328.355z M470.778,303.604c-0.97-2.564-1.812-5.199-2.544-7.882
			c1.481,1.207,2.993,2.379,4.522,3.525C472.112,300.707,471.454,302.16,470.778,303.604z M471.829,331.234
			c0.787,1.974,1.458,3.993,2.116,5.928c0.078,0.229,0.145,0.463,0.221,0.693c-2.502-1.309-4.955-2.711-7.397-4.141
			c0.414-1.472,0.85-2.933,1.299-4.387C469.318,329.97,470.575,330.6,471.829,331.234z M473.57,297.366
			c-2.107-1.588-4.174-3.227-6.171-4.952c-0.448-1.896-0.828-3.814-1.178-5.742c2.869,2.524,5.762,5.022,8.708,7.458
			C474.478,295.209,474.034,296.292,473.57,297.366z M474.499,393.004c-6.035,2.075-9.498-0.764-11.442-5.398
			c3.967,1.747,7.848,3.692,11.905,5.203C474.808,392.874,474.66,392.948,474.499,393.004z M477.011,391.417
			c-5.095-1.723-9.871-4.247-14.822-6.341c-0.313-1.109-0.561-2.279-0.76-3.474c5.912,2.147,11.886,4.15,17.652,6.658
			C478.552,389.455,477.888,390.554,477.011,391.417z M479.785,386.401c-6.104-2.643-12.427-4.745-18.674-7.035
			c-0.222-1.916-0.332-3.853-0.374-5.688c6.585,2.812,13.438,4.937,19.998,7.8C480.571,383.019,480.292,384.741,479.785,386.401z
			 M480.899,379.395c-6.646-2.829-13.564-4.967-20.183-7.881c0.008-1.491,0.056-2.872,0.116-4.068
			c6.674,2.654,13.517,4.866,20.195,7.502C481.03,376.431,480.995,377.914,480.899,379.395z M480.994,372.811
			c-6.64-2.579-13.415-4.801-20.027-7.453c0.105-1.414,0.245-2.832,0.396-4.252c6.416,2.367,12.848,4.69,19.329,6.873
			C480.833,369.587,480.946,371.197,480.994,372.811z M480.49,365.806c-6.333-2.145-12.619-4.421-18.893-6.735
			c0.188-1.563,0.407-3.127,0.646-4.69c5.896,2.142,11.811,4.222,17.583,6.662C480.08,362.623,480.312,364.21,480.49,365.806z
			 M479.444,358.73c-5.553-2.296-11.221-4.3-16.874-6.354c0.215-1.298,0.451-2.595,0.698-3.89c4.92,2.747,10.252,4.521,15.468,6.593
			C478.984,356.295,479.224,357.512,479.444,358.73z M478.251,352.77c-4.95-1.913-9.964-3.667-14.576-6.338
			c0.251-1.234,0.533-2.463,0.812-3.692c0.041,0.027,0.064,0.062,0.113,0.085c4.215,1.978,8.492,3.816,12.689,5.824
			C477.628,350.018,477.95,351.391,478.251,352.77z M476.638,346.135c-3.661-1.708-7.369-3.32-11.028-5.036
			c-0.267-0.125-0.521-0.12-0.747-0.048c0.424-1.788,0.885-3.565,1.361-5.338c2.894,1.686,5.804,3.32,8.791,4.806
			C475.589,342.379,476.138,344.25,476.638,346.135z M475.737,292.205c-3.401-2.828-6.736-5.735-10.05-8.67
			c-0.278-1.795-0.517-3.597-0.725-5.399c4.118,3.391,8.21,6.812,12.322,10.21C476.771,289.633,476.266,290.922,475.737,292.205z
			 M478.461,285.418c-0.129,0.331-0.268,0.659-0.396,0.989c-4.467-3.694-8.91-7.419-13.396-11.09
			c-0.198-2.079-0.348-4.154-0.467-6.22c4.77,4.744,10.023,9.164,15.566,12.948C479.333,283.176,478.896,284.301,478.461,285.418z
			 M480.507,280.124c-5.906-4.071-11.476-8.869-16.455-14.015c-0.08-1.979-0.14-3.945-0.159-5.887
			c-0.005-0.476-0.009-0.962-0.009-1.456c6.11,5.525,12.565,10.688,18.471,16.435C481.746,276.851,481.13,278.492,480.507,280.124z
			 M483.104,273.14c-6.178-5.927-12.912-11.264-19.201-17.071c0.038-2.196,0.14-4.516,0.347-6.867
			c3.864,3.564,7.952,6.918,11.913,10.356c2.746,2.384,5.488,4.771,8.207,7.186c0.169,0.15,0.427,0.357,0.733,0.602
			C484.459,269.284,483.795,271.22,483.104,273.14z M485.771,265.327c-2.18-1.946-4.379-3.868-6.582-5.785
			c-4.889-4.253-9.971-8.371-14.677-12.838c0.244-2.001,0.581-4.002,1.034-5.951c4.072,3.31,7.693,7.111,11.468,10.766
			c3.206,3.104,7.021,5.571,10.363,8.509C486.871,261.801,486.335,263.567,485.771,265.327z M478.427,250.104
			c-4.104-3.866-7.931-7.949-12.332-11.454c0.38-1.328,0.826-2.618,1.343-3.856c7.869,5.654,13.931,13.471,21.433,19.565
			c-0.285,1.176-0.581,2.35-0.896,3.52C484.85,255.233,481.41,252.914,478.427,250.104z"/>
		<path d="M232.183,277.895c-1.286-0.049-2.436,0.624-3.171,1.61c-20.872,3.525-35.166,25.76-34.336,46.052
			c0.822,20.09,17.513,31.018,36.416,30.271c9.661-0.381,19.317-3.154,26.689-9.565c7.131-6.199,9.888-15.94,9.742-25.086
			C267.235,303.023,251.941,278.64,232.183,277.895z M250.077,297.599c-1.981,1.268-3.859,2.668-5.519,4.32
			c-0.72-0.849-1.494-1.635-2.335-2.329c1.506-1.948,3.074-3.846,4.73-5.667C248.069,295.109,249.108,296.351,250.077,297.599z
			 M245.54,292.494c-1.73,1.904-3.365,3.887-4.938,5.922c-0.314-0.202-0.629-0.406-0.957-0.588c1.238-2.372,2.867-4.502,4.549-6.596
			C244.659,291.634,245.096,292.067,245.54,292.494z M238.841,287.634c1.34,0.646,2.613,1.452,3.826,2.364
			c-1.769,2.226-3.472,4.471-4.797,6.982c-0.042-0.017-0.08-0.038-0.121-0.054C238.279,293.833,238.977,290.776,238.841,287.634z
			 M235.317,286.349c0.494,0.12,0.979,0.27,1.458,0.434c0.276,2.954-0.253,5.844-0.78,8.742c-0.424-0.372-0.935-0.664-1.552-0.822
			C234.678,291.922,235.302,289.146,235.317,286.349z M236.06,305.069c-5.367,6.204-11.423,11.755-17.61,17.131
			c-0.018-0.085-0.04-0.171-0.056-0.255c-0.14-0.753-0.209-1.512-0.241-2.269c0.003-0.006,0.007-0.008,0.011-0.012
			c4.875-5.423,10.396-10.21,15.32-15.583C234.414,304.277,235.268,304.62,236.06,305.069z M218.641,314.774
			c1.296-5.199,4.93-9.724,9.865-11.462c0.324,0.224,0.707,0.387,1.136,0.486C226.053,307.533,222.242,311.052,218.641,314.774z
			 M231.913,287.084c0.562-0.082,1.022-0.258,1.411-0.488c-0.028,2.672-0.556,5.308-0.798,7.957
			c-1.399,0.007-2.746,0.152-4.039,0.419c-0.26-2.301-0.586-4.589-0.975-6.869C228.942,287.65,230.409,287.304,231.913,287.084z
			 M225.608,288.77c0.377,2.225,0.689,4.459,0.934,6.704c-0.613,0.19-1.214,0.409-1.799,0.653c-0.871-1.925-1.786-3.808-2.91-5.584
			C223.052,289.869,224.313,289.276,225.608,288.77z M220.132,291.553c1.101,1.718,1.982,3.563,2.818,5.43
			c-0.549,0.294-1.088,0.604-1.605,0.944c-1.371-1.446-2.624-2.996-4.055-4.378C218.204,292.831,219.157,292.171,220.132,291.553z
			 M215.766,294.809c1.426,1.317,2.642,2.856,3.955,4.294c-0.608,0.487-1.2,0.996-1.757,1.545c-1.396-1.32-2.804-2.63-4.222-3.928
			C214.394,296.058,215.071,295.42,215.766,294.809z M212.38,298.182c1.42,1.299,2.828,2.609,4.225,3.933
			c-0.651,0.764-1.264,1.565-1.822,2.409c-1.677-1.003-3.252-2.166-4.863-3.273C210.686,300.183,211.512,299.161,212.38,298.182z
			 M208.794,302.896c1.645,1.126,3.246,2.314,4.953,3.339c-0.401,0.721-0.779,1.457-1.113,2.217
			c-1.752-1.074-3.501-2.154-5.223-3.275C207.843,304.398,208.31,303.642,208.794,302.896z M206.474,306.948
			c1.784,1.162,3.597,2.278,5.412,3.393c-0.347,0.981-0.655,1.982-0.891,3.007c-2.165-0.532-4.33-1.059-6.416-1.86
			C205.112,309.939,205.748,308.425,206.474,306.948z M203.984,313.391c2.155,0.838,4.397,1.373,6.637,1.924
			c-0.132,0.849-0.229,1.705-0.28,2.566c-2.371-0.5-4.73-1.076-7.143-1.207C203.407,315.57,203.674,314.476,203.984,313.391z
			 M202.623,324.224c-0.075-1.853,0.022-3.714,0.263-5.566c2.505,0.104,4.947,0.74,7.408,1.249c0.01,0.72,0.043,1.441,0.111,2.161
			c0.005,0.05,0.014,0.1,0.02,0.149c-2.619,0.688-5.15,1.678-7.779,2.331C202.64,324.438,202.628,324.333,202.623,324.224z
			 M202.821,326.558c2.682-0.633,5.257-1.634,7.914-2.354c0.178,0.86,0.404,1.707,0.684,2.535c-2.551,1.46-5.137,2.856-7.681,4.328
			C203.316,329.646,203.012,328.141,202.821,326.558z M204.393,333.004c2.565-1.495,5.178-2.908,7.758-4.38
			c0.479,1.078,1.033,2.12,1.667,3.113c-0.183,0.022-0.364,0.077-0.536,0.218c-2.217,1.823-4.299,3.8-6.422,5.729
			C205.878,336.263,205.053,334.697,204.393,333.004z M208.071,339.281c2.195-1.987,4.338-4.031,6.625-5.912
			c0.064-0.052,0.091-0.11,0.136-0.167c0.65,0.866,1.347,1.697,2.107,2.467c-1.882,2.251-3.729,4.528-5.542,6.837
			C210.177,341.552,209.067,340.473,208.071,339.281z M213.013,343.665c1.763-2.238,3.558-4.452,5.386-6.638
			c0.695,0.595,1.42,1.151,2.177,1.659c-1.073,2.407-2.035,4.854-2.7,7.411C216.135,345.455,214.511,344.639,213.013,343.665z
			 M223.796,347.582c-1.389-0.194-2.726-0.487-4.016-0.856c0.623-2.411,1.513-4.722,2.514-6.991
			c0.845,0.464,1.715,0.879,2.611,1.228C224.407,343.145,224.16,345.372,223.796,347.582z M229.35,347.887
			c-1.217,0.032-2.408-0.004-3.574-0.094c0.328-2.067,0.576-4.149,1.034-6.194c0.931,0.263,1.875,0.479,2.839,0.605
			C229.634,344.104,229.561,346,229.35,347.887z M219.49,325.261c6.648-5.744,13.184-11.657,18.917-18.329
			c6.201,6.576,5.848,21.889-1.619,26.382C230.036,337.375,222.44,331.578,219.49,325.261z M231.36,347.786
			c0.183-1.803,0.259-3.608,0.282-5.423c0.652,0.019,1.308,0.007,1.967-0.044c0.366,1.727,0.819,3.436,1.106,5.17
			C233.583,347.623,232.466,347.715,231.36,347.786z M236.669,347.214c-0.303-1.724-0.752-3.421-1.107-5.141
			c0.85-0.155,1.7-0.366,2.55-0.645c0.038-0.014,0.072-0.029,0.11-0.042c0.814,1.707,1.781,3.33,2.726,4.969
			C239.538,346.723,238.102,346.989,236.669,347.214z M242.915,345.777c-0.97-1.707-1.984-3.388-2.848-5.15
			c1.177-0.563,2.261-1.242,3.234-2.044c1.614,1.647,3.219,3.306,4.835,4.95C246.505,344.466,244.739,345.188,242.915,345.777z
			 M252.126,340.605c-0.706,0.672-1.461,1.283-2.256,1.841c-1.711-1.736-3.404-3.491-5.111-5.233
			c0.893-0.935,1.689-1.962,2.375-3.08c2.205,1.585,4.505,3.043,6.481,4.917C253.147,339.585,252.651,340.104,252.126,340.605z
			 M254.861,337.482c-2.08-1.932-4.488-3.422-6.769-5.094c0.471-0.965,0.876-1.976,1.217-3.021c2.644,1.375,5.251,2.814,7.795,4.369
			C256.479,335.045,255.729,336.296,254.861,337.482z M257.898,331.882c-2.623-1.595-5.312-3.07-8.037-4.48
			c0.284-1.176,0.503-2.38,0.639-3.606c3.014,0.559,5.996,1.274,8.814,2.467C259.056,328.199,258.579,330.081,257.898,331.882z
			 M259.524,321.177c0.05,1.019,0.041,2.028-0.017,3.028c-2.851-1.129-5.831-1.846-8.854-2.399c0.072-1.574,0.042-3.162-0.117-4.74
			c2.885,0.214,5.763,0.512,8.646,0.751C259.342,318.92,259.47,320.035,259.524,321.177z M258.849,315.785
			c-2.86-0.241-5.717-0.534-8.579-0.741c-0.123-0.75-0.271-1.493-0.445-2.229c2.586-0.564,5.152-1.21,7.737-1.785
			C258.095,312.578,258.521,314.164,258.849,315.785z M256.858,309.142c-2.525,0.564-5.037,1.191-7.564,1.744
			c-0.297-0.965-0.633-1.909-1.02-2.821c2.328-0.754,4.527-1.864,6.81-2.768C255.742,306.556,256.334,307.836,256.858,309.142z
			 M247.415,306.242c-0.49-0.95-1.027-1.863-1.625-2.719c1.643-1.665,3.508-3.059,5.493-4.321c0.092,0.126,0.188,0.254,0.279,0.38
			c0.922,1.295,1.773,2.616,2.557,3.963C251.885,304.457,249.717,305.535,247.415,306.242z"/>
		<path d="M335.743,277.895c-1.286-0.049-2.436,0.624-3.171,1.61c-20.872,3.525-35.166,25.76-34.336,46.052
			c0.822,20.09,17.513,31.018,36.416,30.271c9.661-0.381,19.317-3.154,26.688-9.565c7.132-6.199,9.889-15.94,9.742-25.086
			C370.795,303.023,355.501,278.64,335.743,277.895z M353.371,297.254c-1.761,1.533-3.494,3.097-5.183,4.708
			c-0.59-0.701-1.219-1.36-1.892-1.962c1.041-2.39,2.078-4.778,3.222-7.121C350.912,294.262,352.191,295.751,353.371,297.254z
			 M344.763,288.975c1.133,0.733,2.21,1.578,3.239,2.483c-1.18,2.385-2.249,4.817-3.312,7.257c-0.394-0.274-0.795-0.535-1.21-0.773
			C343.538,294.891,343.952,291.883,344.763,288.975z M343.002,287.942c-0.868,2.938-1.353,5.975-1.481,9.065
			c-0.36-0.146-0.719-0.295-1.094-0.412c0.057-0.157,0.087-0.328,0.052-0.524c-0.561-3.178-1.045-6.413-1.346-9.654
			C340.479,286.769,341.767,287.293,343.002,287.942z M330.407,310.854c2.143-2.067,3.85-4.575,5.688-6.914
			c1.37,0.142,2.602,0.58,3.7,1.237c-6.085,5.658-10.619,13.042-17.653,17.594c-0.071-0.277-0.138-0.553-0.188-0.826
			c-0.14-0.749-0.208-1.503-0.241-2.256C324.176,316.344,327.433,313.726,330.407,310.854z M322.268,314.523
			c1.35-5.094,4.942-9.501,9.799-11.211c0.16,0.109,0.336,0.205,0.521,0.287c-1.362,1.773-2.729,3.546-4.304,5.134
			C326.308,310.728,324.21,312.546,322.268,314.523z M335.473,287.084c0.684-0.1,1.23-0.327,1.66-0.643
			c0.257,2.787,0.646,5.57,1.103,8.32c-0.354-0.113-0.737-0.186-1.159-0.201c-0.242-0.01-0.478-0.001-0.716-0.003
			c-0.637-2.424-1.151-4.874-1.499-7.363C335.065,287.159,335.267,287.114,335.473,287.084z M332.915,287.597
			c0.34,2.377,0.815,4.722,1.406,7.042c-1.102,0.101-2.172,0.277-3.203,0.541c-0.915-1.921-1.738-3.884-2.494-5.882
			c-0.037-0.1-0.098-0.17-0.153-0.245C329.906,288.447,331.394,287.967,332.915,287.597z M326.71,289.863
			c0.758,2.004,1.578,3.979,2.485,5.913c-0.522,0.189-1.039,0.394-1.54,0.623c-1.049-1.781-2.21-3.497-3.184-5.323
			C325.202,290.641,325.95,290.239,326.71,289.863z M322.782,292.151c0.949,1.77,2.071,3.438,3.094,5.164
			c-0.551,0.32-1.091,0.658-1.608,1.026c-1.415-1.37-2.855-2.713-4.366-3.981c-0.01-0.008-0.021-0.009-0.03-0.017
			C320.802,293.558,321.779,292.833,322.782,292.151z M318.396,295.66c0.034,0.037,0.049,0.078,0.091,0.114
			c1.448,1.217,2.831,2.501,4.188,3.812c-0.716,0.614-1.396,1.271-2.034,1.973c-1.48-1.235-3.063-2.346-4.712-3.361
			C316.712,297.31,317.538,296.467,318.396,295.66z M314.63,299.744c1.66,1.011,3.246,2.116,4.729,3.354
			c-0.723,0.94-1.391,1.934-1.979,2.979c-1.756-0.93-3.507-1.87-5.248-2.829C312.897,302.033,313.738,300.866,314.63,299.744z
			 M311.102,304.964c1.777,0.979,3.565,1.938,5.359,2.889c-0.347,0.739-0.673,1.49-0.953,2.263c-2.053-0.562-4.107-1.116-6.16-1.681
			C309.871,307.249,310.464,306.095,311.102,304.964z M308.58,310.297c2.104,0.582,4.211,1.148,6.317,1.725
			c-0.308,1.084-0.55,2.188-0.724,3.311c-2.29-0.315-4.56-0.793-6.85-1.14C307.67,312.876,308.092,311.575,308.58,310.297z
			 M306.867,316.127c2.372,0.34,4.716,0.835,7.082,1.174c-0.118,1.44-0.129,2.896-0.014,4.348c-2.595,0.093-5.18,0.287-7.764,0.529
			C306.221,320.154,306.458,318.129,306.867,316.127z M306.917,329.674c-0.401-1.712-0.656-3.526-0.733-5.45
			c-0.001-0.017,0-0.031-0.001-0.047c2.664-0.249,5.33-0.447,8.004-0.535c0.153,0.871,0.356,1.729,0.617,2.57
			C312.229,327.534,309.697,328.926,306.917,329.674z M307.445,331.605c2.835-0.749,5.431-2.15,8.046-3.502
			c0.588,1.426,1.314,2.792,2.171,4.071c-2.407,1.855-4.729,3.824-7.212,5.582C309.185,335.932,308.17,333.876,307.445,331.605z
			 M311.66,339.337c2.463-1.76,4.776-3.716,7.177-5.559c0.622,0.778,1.276,1.53,1.988,2.225c-1.62,2.427-3.015,4.999-4.544,7.489
			C314.545,342.326,312.998,340.934,311.66,339.337z M317.988,344.529c1.459-2.387,2.784-4.865,4.326-7.196
			c0.766,0.631,1.564,1.218,2.401,1.743c-1.24,2.308-2.379,4.663-3.891,6.803C319.84,345.486,318.896,345.032,317.988,344.529z
			 M327.002,347.534c-1.473-0.224-2.894-0.549-4.253-0.972c1.387-2.078,2.499-4.306,3.699-6.503
			c0.626,0.319,1.261,0.621,1.913,0.879C327.779,343.11,327.335,345.308,327.002,347.534z M333.857,347.854
			c-0.151,0.007-0.308,0.018-0.457,0.022c-1.516,0.061-2.99,0.021-4.426-0.105c0.314-2.089,0.74-4.151,1.286-6.19
			c1.172,0.338,2.373,0.577,3.597,0.696V347.854z M335.857,347.729v-5.364c0.935-0.007,1.876-0.074,2.821-0.224
			c0.313,1.76,0.794,3.457,1.431,5.108C338.681,347.47,337.257,347.621,335.857,347.729z M323.227,325.625
			c7.611-4.712,12.378-12.542,18.896-18.519c6.037,6.665,5.628,21.751-1.774,26.206
			C333.726,337.297,326.294,331.799,323.227,325.625z M342.097,346.9c-0.668-1.668-1.145-3.389-1.47-5.167
			c0.349-0.093,0.695-0.19,1.043-0.305c0.391-0.128,0.76-0.281,1.129-0.436c0.967,1.717,2.055,3.354,3.236,4.932
			C344.746,346.321,343.425,346.639,342.097,346.9z M348.018,345.259c-1.262-1.629-2.405-3.339-3.418-5.129
			c0.921-0.525,1.772-1.136,2.559-1.814c1.745,1.604,3.429,3.273,5.233,4.81C351.021,343.974,349.55,344.675,348.018,345.259z
			 M355.686,340.605c-0.505,0.479-1.042,0.921-1.595,1.342c-1.922-1.573-3.682-3.338-5.505-5.028c0.744-0.817,1.422-1.7,2.016-2.652
			c2.277,1.475,4.465,3.062,6.482,4.871C356.642,339.641,356.181,340.135,355.686,340.605z M358.336,337.574
			c-2.104-1.875-4.388-3.524-6.758-5.057c0.453-0.914,0.849-1.868,1.186-2.856c2.661,1.289,5.342,2.545,8.001,3.84
			C360.101,334.93,359.284,336.287,358.336,337.574z M361.529,331.657c-2.728-1.323-5.472-2.604-8.195-3.934
			c0.28-1.101,0.502-2.227,0.651-3.373c2.979,0.757,5.864,1.804,8.729,2.922C362.454,328.777,362.049,330.24,361.529,331.657z
			 M362.989,325.244c-2.887-1.123-5.799-2.161-8.81-2.9c0.013-0.196,0.032-0.394,0.042-0.591c3.019-0.322,5.989,0.229,8.892,1.062
			C363.107,323.633,363.064,324.442,362.989,325.244z M363.05,320.729c-2.886-0.774-5.807-1.233-8.801-0.976
			c-0.029-1.688-0.175-3.382-0.464-5.045c0.12,0.009,0.248-0.002,0.389-0.051c2.583-0.889,5.204-1.066,7.814-0.69
			C362.543,316.15,362.906,318.401,363.05,320.729z M361.392,311.876c-2.6-0.26-5.221-0.017-7.749,0.854
			c-0.096,0.032-0.161,0.088-0.234,0.138c-0.465-1.976-1.108-3.887-1.937-5.669c2.263-0.892,4.59-1.614,6.839-2.535
			C359.573,306.984,360.604,309.388,361.392,311.876z M350.554,305.42c-0.359-0.639-0.738-1.262-1.147-1.854
			c1.685-1.617,3.416-3.183,5.175-4.718c0.18,0.245,0.367,0.491,0.541,0.733c0.781,1.099,1.51,2.214,2.191,3.349
			C355.09,303.83,352.778,304.518,350.554,305.42z"/>
	</g>
</g>
<g>
</g>
<g>
</g>
<g>
</g>
<g>
</g>
<g>
</g>
<g>
</g>
<g>
</g>
<g>
</g>
<g>
</g>
<g>
</g>
<g>
</g>
<g>
</g>
<g>
</g>
<g>
</g>
<g>
</g>
</svg>
