<svg width="450" height="280" id='submarine' xmlns="http://www.w3.org/2000/svg">
 <g stroke="null">
  <path stroke="#000" id="svg_28" d="m20,181.42495c-0.51664,67.89763 36.34821,68.70267 74,69.57505c37.65179,0.87238 226.50912,0.56659 260,0c33.49088,-0.56659 74.5061,-0.56671 75,-68.1995c0.4939,-67.63279 -408.48336,-69.27318 -409,-1.37555z" fill-opacity="null" stroke-opacity="null" stroke-width="0" fill="#ffe955"/>
  <path id="svg_27" fill="#666666" stroke="#000" stroke-opacity="null" stroke-width="0" d="m309.37973,134.10056c33.37985,-41.76087 112.14832,-71.39756 84.17532,-39.06661c-27.97302,32.33096 -4.28762,38.80808 -30.41098,73.15971c-26.12338,34.35167 -59.56955,-3.10925 -58.11822,-4.45639c1.45129,-1.3471 -29.026,12.12413 4.35388,-29.63671z"/>
  <rect id="svg_19" fill="#ffe955" stroke="#000" stroke-width="0" x="154.75" y="24.7501" width="15" height="56.5"/>
  <path id="svg_17" fill="#ffe7a2" stroke="#000" stroke-width="0" d="m86.25014,110.75c16.57464,-42.99996 26.4295,-64.00022 97.43184,-58.25008c71.00235,5.75013 83.09735,49.2501 100.5679,79.25006"/>
  <path id="svg_29" fill="#84d3db" stroke="#000" stroke-width="0" d="m110.35786,69.7744c11.44339,-2.0446 54.5244,-1.0223 65.96781,1.0223c11.44339,2.04459 20.19424,15.33443 12.11655,26.57969c-8.07769,11.24525 -92.89469,17.37839 -98.61579,17.12314c-5.72109,-0.25527 9.08803,-42.68055 20.53143,-44.72513z"/>
  <path stroke="#000" id="svg_15" fill="#fff093" stroke-width="0" d="m-1.309591,190.60239c-32.472153,-63.84133 62.928529,-84.81256 129.855752,-88.74456c66.927242,-3.932 304.261958,52.64458 361.728306,91.39212"/>
  <ellipse id="svg_2" fill="#666666" stroke="#000" stroke-opacity="null" stroke-width="0" cx="112" cy="153" rx="22.5" ry="22.5"/>
  <ellipse id="svg_4" fill="#84d3db" stroke="#000" stroke-opacity="null" stroke-width="0" cx="112" cy="153" rx="16.5" ry="16.5"/>
  <ellipse id="svg_6" fill="#666666" stroke="#000" stroke-opacity="null" stroke-width="0" cx="112" cy="153" rx="22.5" ry="22.5"/>
  <ellipse id="svg_7" fill="#84d3db" stroke="#000" stroke-opacity="null" stroke-width="0" cx="112" cy="153" rx="16.5" ry="16.5"/>
  <ellipse id="svg_8" fill="#666666" stroke="#000" stroke-opacity="null" stroke-width="0" cx="178" cy="153" rx="22.5" ry="22.5"/>
  <ellipse id="svg_9" fill="#84d3db" stroke="#000" stroke-opacity="null" stroke-width="0" cx="178" cy="153" rx="16.5" ry="16.5"/>
  <ellipse id="svg_10" fill="#666666" stroke="#000" stroke-opacity="null" stroke-width="0" cx="241" cy="153" rx="22.5" ry="22.5"/>
  <ellipse id="svg_11" fill="#84d3db" stroke="#000" stroke-opacity="null" stroke-width="0" cx="241" cy="153" rx="16.5" ry="16.5"/>
  <path id="svg_12" opacity="0.5" fill="#ffe7a2" stroke="#000" stroke-opacity="null" stroke-width="0" d="m1.25018,181.24995c0,-0.5 36.99997,-66.49993 37.99997,-65.99993"/>
  <path id="svg_18" opacity="0.5" fill="#ffe7a2" stroke="#000" stroke-width="0" d="m139.25008,56.75005"/>
  <rect id="svg_20" fill="#faba6f" stroke="#000" stroke-width="0" x="157.25" y="-0.2499" width="0" height="1.5"/>
  <path id="svg_23" fill="#ffe955" stroke="#000" stroke-width="0" d="m148.74997,6.75c20.25,0 21,11 21,17.49999c0,6.5 -1.24999,23 -3.24999,19.5c-2.00001,-3.5 -10.25001,-5.75 -11.25001,-16.25c-1,-10.5 -8.49999,-8.49999 -17.49999,-8.74999c-9,-0.25 -9.25,-12 10.99999,-12z"/>
  <path id="svg_31" fill="#ffe955" stroke="#000" stroke-width="0" d="m150.41272,19.25019l-31.91296,5.24969l0.575,-21.99996c11.30831,1.5 22.61662,2.99999 33.92494,4.49999"/>
  <ellipse id="svg_24" fill="#666666" stroke="#000" stroke-width="0" cx="120" cy="13.625" rx="4.5" ry="10.875"/>
  <ellipse id="svg_25" fill="#84d3db" stroke="#000" stroke-width="0" cx="120.25" cy="13.5" rx="2.75" ry="8.74999"/>
  <path id="svg_32" fill="#b1ffff" stroke="#000" stroke-width="0" d="m133.24911,71.06724c23.24866,1.24347 37.50168,0.77569 44.25054,3.77155c6.74884,2.99586 13.2493,11.04791 10.99953,15.05385c-2.24978,4.00593 -3.74665,-12.71635 -20.49825,-14.22283c-16.75162,-1.50648 -1.00453,-0.99347 -30.50223,-0.78213c-29.49771,0.21134 -27.49823,-5.06391 -4.24959,-3.82044z"/>
  <path id="svg_33" fill="#b1ffff" stroke="#000" stroke-opacity="null" stroke-width="0" d="m118.73817,139.96664c6.99929,1.8371 8.49915,10.24968 7.74923,16.65168c-0.74993,6.402 -5.24949,6.82583 -2.99971,-1.64135c2.24979,-8.46717 -4.74952,-12.41253 -11.49885,-13.49936c-6.74933,-1.08682 -0.24998,-3.34806 6.74932,-1.51097l0.00001,0z"/>
  <path id="svg_34" fill="#b1ffff" stroke="#000" stroke-opacity="null" stroke-width="0" d="m184.48161,139.71668c6.99929,1.83709 8.49915,10.24968 7.74923,16.65167c-0.74993,6.40199 -5.24949,6.82583 -2.99971,-1.64135c2.2498,-8.46717 -4.74952,-12.41255 -11.49884,-13.49935c-6.74933,-1.08683 -0.24999,-3.34809 6.74931,-1.51098l0.00001,0l0,0.00001z"/>
  <path id="svg_35" fill="#b1ffff" stroke="#000" stroke-opacity="null" stroke-width="0" d="m247.22537,140.4666c6.99928,1.8371 8.49915,10.24968 7.74922,16.65169c-0.74992,6.40197 -5.24948,6.82583 -2.99971,-1.64136c2.24981,-8.46718 -4.74951,-12.41254 -11.49884,-13.49934c-6.74932,-1.08683 -0.24998,-3.34809 6.74932,-1.51099l0.00001,0z"/>
  <ellipse id="svg_5" fill="#ffe955" stroke="#000" stroke-width="0" cx="231.55" cy="222.293" rx="0.299996"/>
  <path id="svg_16" opacity="0.5" fill="none" stroke="#000" stroke-width="1.5" d="m234.25005,240.2923"/>
  <ellipse id="svg_21" fill="#393939" stroke="#000" stroke-width="0" cx="225" cy="215" rx="10" ry="10"/>
  <ellipse id="svg_13" fill="#ffe955" stroke="#000" stroke-width="0" cx="225" cy="215.4" rx="5.1999" ry="5.29988"/>
  <path id="svg_22" fill="#ffffff" stroke="#000" stroke-opacity="null" stroke-width="0" transform="rotate(-70 225.5509948730469,208.30200195312497) " d="m224.85033,203.91354c1.97599,1.03598 2.88299,4.36899 2.71899,7.249c-0.16299,2.879 -1.19699,2.557 -0.728,-0.57801c0.47001,-3.13598 -1.559,-5.33899 -2.84899,-6.427c-1.28901,-1.087 0.37837,-0.67853 0.858,-0.24399c0,0 0.539,-0.27499 0,0z"/>
  <path id="svg_36" opacity="0.5" fill="none" stroke="#000" stroke-opacity="null" d="m217.80014,232.63327"/>
  <ellipse id="svg_45" fill="#393939" stroke="#000" stroke-width="0" cx="205.562" cy="233.558" rx="3.87265" ry="5.44697"/>
  <ellipse id="svg_46" fill="#393939" stroke="#000" stroke-width="0" cx="244.737" cy="233.533" rx="3.72228" ry="5.34694"/>
  <path id="svg_52" opacity="0.5" fill="none" stroke="#000" stroke-opacity="null" d="m220.62852,261.36154"/>
  <path id="svg_58" opacity="0.5" fill="none" stroke="#000" stroke-opacity="null" d="m251.74411,261.18668"/>
  <path id="svg_64" fill="#000" stroke="#000" stroke-width="0" transform="rotate(45 225.49850463867182,251.57397460937503) " d="m201.474,259.392l15.13699,0.15701l-0.57199,4.103l-1.599,2.142c4.775,2.08899 8.19,3.009 10.95999,2.21899c2.77101,-0.789 4.33301,-1.87201 4.40901,-2.802c0.154,-1.857 -5.26499,-7.801 -7.018,-9.82401c-1.754,-2.02499 2.875,-2.23498 3.362,-2.694c0.97301,-0.92099 0.765,-5.41699 2.615,-3.27899c1.85,2.138 7.954,7.52399 9.56499,7.11899c0.80501,-0.202 2.38901,-2.366 2.89701,-4.78598c0.50801,-2.41901 -0.66201,-7.24802 -1.721,-10.41202l-2.511,1.901l-3.85899,0.44l1.56999,-19.91l18.13699,13.94501l-2.37999,0.97299l-6.48001,0.918c1.04201,3.349 6.636,8.876 6.97501,15.01101c0.339,6.13498 -0.13897,9.96003 -6.28696,16.32703c-6.14801,6.37 -12.82004,8.36496 -18.34905,6.87296c-5.528,-1.49299 -5.007,-1.88199 -8.42999,-3.999c-3.42401,-2.11599 -6.198,-4.897 -6.05701,-4.07599l-0.65499,6.94001l-1.133,2.70397l-11.899,-19.84899l3.323,-0.141l0,0.00001z"/>
  <rect id="svg_14" fill="#000" stroke="#000" stroke-width="0" x="218.282" y="228.399" width="13.9906" height="8.89051" rx="2"/>
  <rect id="svg_30" fill="#000" stroke="#000" stroke-width="0" x="208.538" y="230.744" width="32.981" height="4.44793"/>
  <path id="svg_37" fill="#000" stroke="#000" stroke-width="0" d="m222.528,219.44699l-1.85001,44.72501l8.74601,0.75l-1,-45.97501l-5.896,0.5z"/>
  <path id="svg_38" fill="#ffffff" stroke="#000" stroke-width="0" d="m205.7001,230.32001c0.19976,1.13342 0.66657,1.99969 1.13315,1.79971c0.46637,-0.19968 0.93341,-0.00024 0.4666,-1.13315c-0.46681,-1.1329 -1.79993,-1.79944 -1.59975,-0.66656z"/>
  <path id="svg_39" fill="#ffffff" stroke="#000" stroke-width="0" d="m244.74393,230.47006c0.19999,1.133 0.667,2 1.13299,1.79999c0.46701,-0.19998 0.93401,-0.00101 0.46701,-1.133c-0.46701,-1.13299 -1.8,-1.79998 -1.6,-0.66699z"/>
  <path id="svg_47" fill="#ffffff" stroke="#000" stroke-width="0" d="m209.09801,231.448l9.013,0.01925l0,0.44275l-9.06301,-0.04886c0.01667,-0.13772 -0.04165,-0.27542 0.05001,-0.41314z"/>
  <path id="svg_49" fill="#ffffff" stroke="#000" stroke-width="0" d="m232.52199,231.448l9.013,0.01925c0,0.14759 0.175,0.29517 0,0.44275l-9.06299,-0.04889c0.017,-0.13769 -0.04201,-0.27542 0.04999,-0.41311z"/>
  <path id="svg_50" fill="#ffffff" stroke="#000" stroke-width="0" d="m220.05701,229.298l10.653,0.02134l0,0.49063l-10.71201,-0.05414c0.02,-0.15259 -0.14999,-0.30524 0.05901,-0.45783z"/>
  <path id="svg_51" fill="#ffffff" stroke="#000" stroke-width="0" transform="rotate(90 230.72700500488284,232.66598510742188) " d="m227.44612,232.43497l6.60089,0.01922l0,0.44278l-6.63804,-0.04889c0.01271,-0.13769 -0.03032,-0.27539 0.03715,-0.41311z"/>
  <path id="svg_53" fill="#ffffff" stroke="#000" stroke-width="0" transform="rotate(90 219.90199279785156,230.8479919433594) " d="m218.39276,230.59219l2.899,0.02134c0.10001,0.16247 0.25,0.32656 0,0.49069l-2.91499,-0.05414c0.00499,-0.15265 -0.01401,-0.30524 0.01599,-0.45789z"/>
  <path id="svg_54" fill="#ffffff" stroke="#000" stroke-width="0" d="m228.63751,235.89783l2.29749,0.01925l0,0.44272l-2.31021,-0.04886c0.00431,-0.13769 -0.19747,-0.16439 0.01272,-0.41311z"/>
  <path id="svg_55" fill="#ffffff" stroke="#000" stroke-width="0" transform="rotate(88 227.33198547363284,248.20004272460938) " d="m211.37521,247.61917l32.00901,0.05008c0.15199,0.27185 0.378,0.56513 -0.075,1.11166l-32.11,-0.11731c-0.134,-0.56942 -0.22,-0.85842 0.17599,-1.04443z"/>
  <path id="svg_56" fill="#ffffff" stroke="#000" stroke-width="0" transform="rotate(137 244.60357666015625,250.72650146484378) " d="m238.89999,250.138l11.57399,0.04901c0.23301,0.293 0.52401,0.73398 0,1.12799l-11.63699,-0.125c-0.503,-0.33301 -0.578,-0.68399 0.06301,-1.052l-0.00001,0z"/>
  <path id="svg_57" fill="#ffffff" stroke="#000" stroke-width="0" transform="rotate(45 206.3482971191406,250.136474609375) " d="m200.64546,249.59872l11.573,0.04416c0.233,0.26755 0.524,0.67151 0,1.03131l-11.63701,-0.113c-0.502,-0.30521 -0.578,-0.62604 0.06401,-0.96247z"/>
 </g>
</svg>
